<?xml version="1.0" encoding="utf-8"?>
<!-- Generator: Adobe Illustrator 23.0.3, SVG Export Plug-In . SVG Version: 6.00 Build 0)  -->
<svg version="1.1" id="レイヤー_1" xmlns="http://www.w3.org/2000/svg" xmlns:xlink="http://www.w3.org/1999/xlink" x="0px"
	 y="0px" viewBox="0 0 139.5 79.8" width="28" height="16" style="enable-background:new 0 0 139.5 79.8;" xml:space="preserve">
<style type="text/css">
	.st0{fill:#54A546;}
	.st1{fill:#251E1C;}
	.st2{fill:#FFFFFF;}
</style>
<g>
	<g>
		<g>
			<g>
				<g>
					<rect class="st0" width="120.8" height="78.8"/>
				</g>
			</g>
		</g>
		<g>
			<g>
				<g>
					<path class="st1" d="M124.4,72.3c0,4.2,3.4,7.5,7.5,7.5c4.2,0,7.5-3.4,7.5-7.5c0-4.2-3.4-7.5-7.5-7.5
						C127.8,64.7,124.4,68.1,124.4,72.3 M125.3,72.3c0-3.7,3-6.7,6.7-6.7c3.7,0,6.7,3,6.7,6.7c0,3.7-3,6.7-6.7,6.7
						C128.2,78.9,125.3,75.9,125.3,72.3z"/>
				</g>
			</g>
		</g>
		<path class="st1" d="M135.6,77.1h-1.4l-2.9-4.5h-1.3v4.5h-1.2v-10h2.8c0.9,0,1.7,0.2,2.2,0.7c0.5,0.5,0.8,1.1,0.8,1.9
			c0,0.6-0.2,1.2-0.6,1.6c-0.4,0.5-1,0.8-1.7,1L135.6,77.1 M129.9,71.6h1.5c0.6,0,1.1-0.2,1.5-0.5c0.4-0.3,0.6-0.7,0.6-1.3
			c0-1.1-0.7-1.7-2-1.7h-1.5V71.6z"/>
	</g>
	<g>
		<g>
			<g>
				<g>
					<g>
						<g>
							<g>
								<path class="st2" d="M30.3,61.1c-6.6,0-14.8-5.1-14.8-15.5c0-8.1,8-14.6,14.8-18.5c6.8,3.9,14.8,10.4,14.8,18.5
									C45.2,56.1,37,61.1,30.3,61.1 M75.8,45.4c0-8.1,8-14.6,14.8-18.5c6.8,3.9,14.8,10.4,14.8,18.5c0,10.4-8.2,15.5-14.8,15.5
									C84.1,61,75.8,55.9,75.8,45.4 M120.7,12.3c-12.3,0-23.1,3.1-30.5,6.9c-7.4-3.8-17.6-6.9-29.8-6.9c-12.3,0-22.5,3.1-29.9,6.9
									c-7.4-3.8-18.2-6.9-30.5-6.9v6.9c7.3,0,16.1,1.4,23,4.4c-7.5,5-14.8,12.5-14.8,22.1c0,12.6,10.7,22.2,22.4,22.2
									c11.6,0,21.9-9.6,21.9-22.2c0-9.5-6.9-17.1-14.3-22.1c6.9-3,15.1-4.4,22.3-4.4s15.4,1.4,22.3,4.4
									c-7.5,5-14.3,12.5-14.3,22.1c0,12.6,10.2,22.2,21.9,22.2c11.6,0,22.2-9.6,22.2-22.2c0-9.5-7.2-17.1-14.7-22.1
									c6.9-3,15.7-4.4,23-4.4V12.3z"/>
							</g>
						</g>
					</g>
				</g>
			</g>
		</g>
	</g>
</g>
</svg>
