<?xml version="1.0" encoding="utf-8"?>
<!-- Generator: Adobe Illustrator 23.0.3, SVG Export Plug-In . SVG Version: 6.00 Build 0)  -->
<svg version="1.1" id="レイヤー_1" xmlns="http://www.w3.org/2000/svg" xmlns:xlink="http://www.w3.org/1999/xlink" x="0px"
	 y="0px" viewBox="0 0 559.3 173.5" width="353" height="110" style="enable-background:new 0 0 559.3 173.5;" xml:space="preserve">
<style type="text/css">
	.st0{fill:#9E2227;}
	.st1{fill-rule:evenodd;clip-rule:evenodd;fill:#251E1C;}
</style>
<g>
	<g>
		<path d="M300.4,24.1c-2,2-6.1,5.5-11.6,7.2l-0.1-0.2c3.3-1.9,8.9-7,9.9-10.1l3,2.2c0.2,0.1,0.4,0.3,0.4,0.5
			C301.9,24.1,301.5,24.1,300.4,24.1z M321.4,6.2h-27.3c-0.9,0-2.7,0-4.3,0.3l-0.7-1.4c2.5,0.2,5.1,0.2,5.6,0.2h9.5
			c0.1-2.9-0.4-4.3-0.8-5.1l4,0.9c0.3,0.1,0.6,0.2,0.6,0.5c0,0.4-0.3,0.6-1.2,1c0,1.1,0,1.3,0,2.8h9.3l1.7-1.7
			c0.3-0.3,0.4-0.4,0.5-0.4c0.2,0,0.4,0.2,0.8,0.4l2.5,1.7c0.1,0.1,0.4,0.3,0.4,0.6C322,6.1,321.7,6.2,321.4,6.2z M314.9,12
			c0,0.7,0,1.6,0,3.2c0,0.6,0.2,3.3,0.2,3.8c0,1.1-1.1,1.6-1.8,1.6c-1,0-1-0.5-0.9-1.7H307c0,1.5,0.1,8,0.1,9.4c0,1.2,0,3.3-3.8,4.1
			c-0.3-2.3-3.4-3.6-4.1-3.8l0-0.2c2.2,0.3,3.2,0.4,4.2,0.4c1.1,0,1.1-0.2,1.1-1.6v-8.2h-6.4c0.1,1,0.1,2.2-1.7,2.2
			c-0.8,0-1-0.4-1-0.9c0-0.1,0-0.6,0-0.8c0-1,0.1-4.3,0.1-5.5c0-3.7,0-4-0.4-5.5l3.4,1.8h13.5l1.1-1.1c0.1-0.1,0.3-0.3,0.5-0.3
			c0.2,0,0.3,0.1,0.5,0.2l1.7,1.3c0.4,0.3,0.4,0.4,0.4,0.6C316.4,11.3,316.1,11.4,314.9,12z M312.5,10.9h-14.3V18h14.3V10.9z
			 M318.3,30.2c-1,0-1.2-0.3-2.7-2.4c-1.5-2.1-3.2-4.2-5.5-5.5l0.1-0.2c3.7,0.6,9.5,3.4,9.5,6.6C319.7,29.3,319.3,30.2,318.3,30.2z"
			/>
		<path d="M344.7,12.5c-0.9,0-2.7,0-4.3,0.3l-0.7-1.4c2.5,0.2,5.1,0.2,5.6,0.2h1.7V6.6h-2.3c-1.7,0-2.4,0.1-3,0.2l-0.5-1.2
			c1.6,0.1,3.2,0.2,4,0.2h1.8c0-1.4,0-3.7-0.1-4.1c-0.1-0.5-0.3-0.9-0.4-1.4l3.6,1c0.3,0.1,0.5,0.2,0.5,0.5c0,0.4-0.3,0.6-1.1,0.9
			c-0.1,0.6-0.1,0.9-0.2,3h0.8l0.8-1.1c0.2-0.3,0.3-0.5,0.5-0.5c0.3,0,0.4,0.1,0.7,0.4l1.1,1.1c0.2,0.2,0.4,0.3,0.4,0.5
			c0,0.3-0.2,0.4-0.5,0.4h-3.8c0,0.8,0,4.4,0,5.1h0.7c2-2.5,5.5-7.2,5.8-9.5l2.8,1.9c0.2,0.1,0.3,0.3,0.3,0.5c0,0.5-0.4,0.5-1.3,0.6
			c-2,2.7-3.5,4.7-5.1,6.5h2.3l1.2-1.4c0.3-0.3,0.4-0.4,0.5-0.4c0.2,0,0.5,0.2,0.7,0.4l1.7,1.4c0.2,0.1,0.3,0.3,0.3,0.6
			c0,0.3-0.3,0.3-0.5,0.3h-6.9c-1.9,2.1-3.1,3.4-4.2,4.4l0.5,0.2h5l0.9-1c0.1-0.2,0.3-0.3,0.5-0.3c0.1,0,0.3,0.1,0.5,0.2l1.7,1.1
			c0.4,0.3,0.5,0.5,0.5,0.6c0,0.3-0.2,0.5-1.3,1.1c0,1.3-0.1,3.8,0,7.3c0,0.5,0.2,2.7,0.2,3.2c0,1.2-1.3,1.4-1.9,1.4
			c-0.9,0-0.8-0.4-0.8-1.6h-5.7c0,1.2,0.1,2.3-1.9,2.3c-0.7,0-0.8-0.3-0.8-0.8c0-0.3,0.2-2.2,0.2-2.6c0-0.7,0.3-6.2,0.2-9.1
			c-2.9,2.3-5.3,3.5-6.6,4.2l-0.3-0.2c1.2-0.9,3.3-2.4,6.8-5.8c0-0.3-0.1-0.8-0.1-1.2l0.9,0.5c1.3-1.3,1.9-2,3.3-3.6H344.7z
			 M347.6,18v4.7h5.8V18H347.6z M347.6,23.5v4.8h5.8v-4.8H347.6z M367.9,3l0.8-0.7c0.1-0.1,0.3-0.2,0.5-0.2c0.2,0,0.4,0.3,0.5,0.3
			l2.1,1.9c0.1,0.1,0.3,0.3,0.3,0.6c0,0.5-0.6,0.7-1.7,0.9c-2,2.6-5.3,7.1-5.5,7.3c1.5,0.8,7.3,3.9,7.3,9.5c0,3.3-2.1,5.1-5.6,5.5
			c-0.4-2.1-1.8-3.1-2.6-3.6l0.1-0.2c1.6,0.3,2.6,0.5,3.3,0.5c2.1,0,2.1-2,2.1-2.4c0-3.1-1.6-6.2-5.4-9.1c1.4-2.9,3.2-7.7,3.8-9.4
			h-5.2c-0.1,7.5-0.1,17.9,0.2,25.4c0,0.2,0,0.6,0,1c0,1.7-1.9,1.7-2,1.7c-0.6,0-0.9-0.2-0.9-0.9c0-0.8,0.1-2.2,0.1-3
			c0.1-5.9,0.2-17.6,0.2-17.9c0-2.8,0-6.1-0.6-8.4l3.3,1.4H367.9z"/>
		<path d="M416.8,25.8l2-2.1c0.2-0.2,0.4-0.4,0.6-0.4c0.3,0,0.4,0.2,0.7,0.4l2.6,2.3c0.2,0.2,0.3,0.4,0.3,0.5c0,0.3-0.3,0.4-0.5,0.4
			h-26.2c-0.6,0-2.5,0-4.3,0.3l-0.7-1.5c2.7,0.2,5,0.2,5.6,0.2H416.8z M413.8,6.2l1.6-2c0.1-0.2,0.3-0.5,0.6-0.5
			c0.1,0,0.5,0.2,0.7,0.4l2.6,2.1c0.1,0.1,0.4,0.3,0.4,0.5c0,0.3-0.4,0.4-0.6,0.4h-20.3c-0.4,0-2.6,0-4.3,0.3L393.7,6
			c1.9,0.1,3.7,0.2,5.6,0.2H413.8z"/>
		<path d="M471.5,16.7c-3.5-0.6-9.5-2.6-12.9-5.6c-4.8,3.6-9.1,5.8-16.5,7.3l0-0.3c2.3-0.8,8.2-3,14.9-8.6c-1-1-2.3-2.8-3-4.4
			c-2.9,3.1-6.2,6.1-9.8,7.7l-0.1-0.2c8.4-7.7,9.9-11.6,10-12.7l3.2,1.1c0.3,0.1,0.5,0.4,0.5,0.6c0,0.4-0.7,0.6-1.3,0.7
			c-0.9,1-1,1.1-1.3,1.5h7l1.4-1c0.2-0.1,0.4-0.3,0.6-0.3c0.1,0,0.3,0.1,0.4,0.3l1.6,1.5c0.2,0.2,0.4,0.4,0.4,0.6
			c0,0.3-0.2,0.5-0.5,0.6c-0.4,0.1-1.2,0.3-1.6,0.4c-0.5,0.6-1.7,2-4.5,4.2c4,2.5,9.7,3.4,14.5,3.3v0.2
			C473.4,14.1,472.1,15.3,471.5,16.7z M470.8,30.4c-5.5-1.8-10.1-7-11.5-9.6v2.6c0,0.9,0,2.8,0,4.6c0,0.3,0.1,1.9,0.1,2.3
			c0,1.7-1.6,1.7-1.7,1.7c-0.8,0-0.9-0.4-0.9-1.1c0-0.4,0.1-2.3,0.1-2.8c0.1-1.9,0.1-2.7,0-6.5c-4.6,5.6-9.8,8.2-14.6,9.9l-0.1-0.2
			c4-1.9,10.6-8,12.4-10.8h-7.3c-0.9,0-2.7,0-4.3,0.3l-0.7-1.4c2.9,0.2,5,0.2,5.6,0.2h9.1c-0.1-2.1-0.1-4.2-0.6-5.5l3.4,0.8
			c0.3,0.1,0.7,0.2,0.7,0.5c0,0.4-0.4,0.6-1.1,0.9v3.3h9.3l1.6-1.7c0.2-0.2,0.4-0.4,0.6-0.4s0.4,0.1,0.7,0.3l2.3,1.7
			c0.2,0.1,0.4,0.3,0.4,0.5c0,0.3-0.4,0.4-0.5,0.4h-13.8c2.5,3,8.8,6.7,14.5,6.9v0.2C472.4,28.2,471.3,29.6,470.8,30.4z M454.4,4.7
			c1.3,2.1,2.7,3.3,3.5,4c1-0.8,2.7-2.5,3.7-4H454.4z"/>
	</g>
	<g>
		<g>
			<path class="st0" d="M152.5,124.1c0.2-0.1,0.4-0.2,1.1-0.3c0.8-0.3,1-0.6,1-1c0-0.4-0.4-0.6-0.7-0.6l-0.8,0l-7.7,0h-0.8
				c-0.4,0-0.7,0.2-0.7,0.6c0,0.4,0.2,0.7,1,1c0.6,0.2,0.9,0.3,1.1,0.4c0.6,0.3,0.9,0.8,0.9,2.6l-0.1,22.5c0,1.8-0.3,2.3-0.9,2.6
				c-0.2,0.1-0.4,0.2-1.1,0.3c-0.8,0.2-1,0.7-1,1c0,0.5,0.3,0.6,0.7,0.6h0.8l7.7,0h0.8c0.4,0,0.7-0.1,0.7-0.5c0-0.4-0.1-0.8-1-1
				c-0.7-0.2-0.9-0.3-1.1-0.4c-0.6-0.3-0.9-0.8-0.9-2.6l0.1-22.6C151.6,124.9,152,124.4,152.5,124.1z"/>
			<path class="st0" d="M192.6,152.8c-0.4-0.1-1.4-0.3-1.4-1.4l0.1-13.2c0,0,0.4-4.2-3.5-5.3c-4.3-1.2-6.6,1.4-6.6,1.4l0.1-12
				c0,0,0-1,0.3-1.5c0.2-0.4,0.3-1,0-1.2c-0.4-0.2-1.1,0.4-1.8,1.1c-0.9,0.9-3.9,3.2-3.9,3.2s-0.3,0.3-0.2,0.7
				c0,0.4,0.6,0.5,0.9,0.5c0.2,0,0.8,0.3,0.8,1l-0.1,25.3c0,0.5-0.1,0.9-0.6,1.1c-0.4,0.1-0.8,0.2-0.8,0.6c0,0.4,0.3,0.6,0.7,0.6
				l0.8,0h3.9h1.4c0.4,0,0.7-0.1,0.7-0.5c0-0.4-0.4-0.5-0.8-0.6c-0.5-0.2-1.4-0.5-1.4-1.5l0.1-13.3c0,0-0.1-3.7,3.2-3.7
				c3.3,0,3.1,3.5,3.1,3.5l-0.1,13.6c0,0-0.2,1.3-0.8,1.5c-0.6,0.2-0.9,0.5-0.9,0.8c0,0.3,0.4,0.5,0.8,0.5c0.4,0,6.2,0,6.2,0
				s0.7,0,0.7-0.5C193.2,153.2,193,153,192.6,152.8z"/>
			<path class="st0" d="M203.5,152.8c-0.5-0.2-1.3-0.5-1.3-1.5l0.1-16.2c0,0,0-0.9,0.3-1.5c0.2-0.4,0.3-0.9-0.1-1.2
				c-0.4-0.2-1.1,0.4-1.9,1.2c-0.9,1-3.9,3.2-3.9,3.2s-0.3,0.4-0.2,0.7c0.1,0.4,0.6,0.5,0.9,0.5c0.2,0,0.8,0.2,0.8,1l-0.1,12.7
				c0,0.6-0.2,0.9-0.6,1.1c-0.4,0.1-0.8,0.3-0.8,0.6c0,0.4,0.3,0.6,0.7,0.6h0.8h3.9h1.3c0.4,0,0.7-0.1,0.7-0.5
				S203.9,153,203.5,152.8z"/>
			<path class="st0" d="M274.7,152.9c-0.6-0.4-1.6-1.3-3.6-3.8l-6.5-8.1c2-2.3,4.2-4.7,4.7-5.2c0.9-1,1.2-1,1.2-1
				c0.4-0.2,0.8-0.3,1.3-0.4c0.4-0.1,1-0.2,1-0.7c0,0,0.1-0.4-0.7-0.4l-5.4,0h-0.4c0,0-0.4,0-0.4,0.5c0,0.4,0.5,0.6,0.5,0.6
				c0.4,0.3,0.4,0.6,0.3,0.9c0,0-0.3,0.4-0.8,0.9c-0.4,0.3-1.8,1.8-2.9,2.9l-0.7-0.9l0.1-15.6c0,0,0.1-0.9,0.4-1.5
				c0.2-0.5,0.3-0.9-0.1-1.1c-0.4-0.3-1.1,0.4-1.8,1.1c-0.9,0.9-3.9,3.2-3.9,3.2s-0.3,0.3-0.2,0.7c0.1,0.4,0.7,0.5,0.9,0.5
				c0.2,0,0.8,0.2,0.8,1l-0.2,25.7c0,0.6-0.1,0.9-0.6,1.1c-0.4,0.2-0.8,0.3-0.8,0.6c0,0.4,0.3,0.6,0.7,0.6h0.8h3.9l1.3,0
				c0.4,0,0.7-0.2,0.7-0.6c0-0.3-0.4-0.5-0.8-0.6c-0.5-0.2-1.3-0.5-1.3-1.5l0-7c1.9,2.4,7,8.6,7.5,9.1c0.6,0.7,0.8,0.7,1.6,0.6
				c1.3,0,2.3,0,2.3,0h1.4c0.4,0,0.7-0.2,0.7-0.5C275.6,153.5,275.4,153.3,274.7,152.9z"/>
			<path class="st0" d="M231.8,153c-0.5-0.2-1.1-0.5-1.1-1.6l0.1-14.2c0-2.3-2-4.4-4-4.6c-3-0.4-5.4,1.8-5.4,1.8
				c-3.5-3.3-7.9-0.8-7.9-0.8c0.2-0.4,0.3-0.9-0.1-1.1c-0.4-0.3-1.3,0.5-2.1,1.3c-0.9,0.9-3.6,3.1-3.6,3.1s-0.3,0.3-0.3,0.7
				c0.2,0.4,0.7,0.5,0.9,0.5c0.3,0,0.8,0.2,0.8,1l-0.1,12.6c-0.1,0.6-0.2,0.9-0.7,1.1c-0.3,0.1-0.8,0.2-0.8,0.6
				c0,0.4,0.3,0.5,0.7,0.5h0.8l3.9,0.1h1.1c0.3,0,0.7-0.2,0.7-0.5c0-0.4-0.4-0.5-0.8-0.6c-0.5-0.2-1.1-0.5-1.1-1.5l0.1-14
				c0,0-0.1-2.6,2.2-3c2-0.3,2.9,1.3,2.9,2.1c0,0.8-0.1,15.3-0.1,15.3c0,0.6-0.1,0.9-0.7,1.1c-0.4,0.2-0.8,0.2-0.8,0.6
				c0,0.4,0.4,0.6,0.7,0.6h0.8h4h1.1c0.4,0,0.7-0.1,0.7-0.5c0-0.3-0.4-0.5-0.8-0.6c-0.5-0.2-1-0.5-1-1.5l0.1-14.9
				c0,0,1.1-2.1,3.1-1.9c2,0.2,1.7,3.3,1.7,3.3l-0.1,13.8c-0.1,0.6-0.2,0.9-0.7,1.1c-0.4,0.1-0.8,0.3-0.8,0.6c0,0.4,0.3,0.5,0.7,0.6
				h0.8l3.9,0h1.1c0.4,0,0.7-0.2,0.7-0.6C232.6,153.2,232.2,153.1,231.8,153z"/>
			<path class="st0" d="M173.6,150c-0.2,0.1,0,0-1.4,0.8c-3.2,1.8-6.8,0.8-6.8,0.8c-3.1-0.7-6.5-3.8-7.1-7.8c-0.5-4,0.1-5.8,2.7-8.3
				c2.8-2.5,7.7-1.4,7.7-1.4c2.8,0.6,3.1,2.7,3.1,3.5c0,0.8,0,3.6,0,3.6c0,0.9,0.3,1.1,0.8,1.1c0.6,0,0.7-1.1,0.7-1.1s0-8.8,0-9.3
				c0-0.5-0.6-0.7-0.8-0.7c-0.3,0-0.7,0.1-1.1,0.6c-0.3,0.4-1.1,0.2-1.1,0.2c-2.3-0.2-4.3,0-6.9,0.7c-7.5,2.3-8,9.9-8,9.9
				s-0.6,8.6,6.6,10.9c7.4,2.3,12.3-2.4,12.3-2.4C174.8,150.4,174.2,149.7,173.6,150z"/>
			<path class="st0" d="M200.3,126.9c1,0,1.8-0.7,1.8-1.8c0-1-0.8-1.8-1.8-1.8c-1,0-1.8,0.8-1.8,1.8
				C198.5,126.1,199.3,126.9,200.3,126.9z"/>
			<path class="st0" d="M237,134.9c-2.7,2.3-5.8,7.8-3.3,13c2.3,4.9,7.8,6.8,11.3,6.6c0,0,7.5-0.3,10-6.3c2.6-6-0.2-10.5-2.5-13.1
				C249.8,132.3,242,130.7,237,134.9z M248,152.5c0,0-7.2,1.6-10.5-5.9c-3.8-8.6,2.1-12,2.1-12c0.5-0.2,3.7-1.7,7,0.3
				c3.2,1.9,6.5,5.7,6.3,11.3C252.7,151.7,248,152.5,248,152.5z"/>
			<path class="st0" d="M293,152.7c-0.5-0.2-1.5-0.5-1.5-2l0.1-15.8c0,0,0.2-1.8-1.6-1.8c-1.8,0-4.3,0-4.3,0s-1,0-1,0.6
				c0,0.6,0.9,0.8,0.9,0.8s1.9,0.2,1.9,1.8c0,1.7-0.1,12.8-0.1,12.8s0,2.8-2,3.1c-1.8,0.3-4.1-0.1-4.1-2.2c0-2.2,0.1-14.8,0.1-14.8
				c0-2.2-2-2.2-2-2.2h-3.6c0,0-1.1-0.2-1.2,0.5c0,0-0.1,0.5,0.6,0.7c0.9,0.2,2.2,0.4,2.2,2.3c0,1.7,0,13.7,0,13.7s-0.1,2.7,2.1,3.9
				c1.9,0.9,5.1,1.3,7.5-0.8c0,0,1,1.1,3.7,1c2.7-0.1,3.2-0.4,3.2-0.8C293.9,153,293.5,152.8,293,152.7z"/>
		</g>
		<g>
			<path class="st1" d="M224.7,66.4c0.4,0.2,0.7,0.4,0.7,0.4s-0.3,0.1,0.4,0.4c0.6,0.3,0.9,0.4,1.3,0.6c0.5,0.2,0.6,0.3,0.8,0.5
				c0.3,0.2,0.9,0.3,0.9,0.3l0.7,0.2c0,0,0.8,0.3,0.9,0.7c0.1,0.5,0.3,0.6,0.6,0.9c0.3,0.4,0.9,0.7,0.9,0.7s0.4,0,0.6,0.4
				c0.2,0.4,0.8,1.4,0.8,1.4l0.2,0.8c0,0-0.3,0.6-0.6,0.8c-0.2,0.3-0.7,0.6-0.7,0.6s-0.5,0.7-0.6,1c-0.1,0.3-0.4,0.3-0.6,0.5
				c-0.1,0.3-0.5,0.5-0.6,0.9c-0.1,0.5-0.3,0.4,0,0.8c0.3,0.4,0.7,0.3,0.7,0.3l0.6-0.3c0,0,0.1,0,0.6-0.2c0.5-0.1,0.8-0.3,1-0.6
				c0.2-0.3,0.2-0.5,0.6-0.8c0.3-0.3-0.2-0.1,0.5-0.6c0.7-0.5,1.1-0.5,1.2-0.9c0.1-0.3,0.3-0.8,0.3-0.8s0.3-0.3,0.4-0.6
				c0.1-0.3,0-0.8,0-0.8s-0.2-0.1,0-0.5c0.1-0.3,0.2-1.2,0.2-1.2s-0.2-0.6-0.5-0.8c-0.2-0.2-0.7-0.5-1-0.7c-0.3-0.1-0.3-0.2-0.6-0.3
				c-0.2-0.1-0.8-0.3-1.1-0.8c-0.3-0.4-0.4-0.5-0.9-0.9c-0.5-0.4-1-0.6-1-0.6s-0.5,0.2-0.8-0.3c-0.3-0.5-0.3-0.6-0.7-0.8
				c-0.4-0.2-0.6-0.1-1-0.2c-0.3-0.2-1.1-0.5-1.1-0.5s-0.4-0.5-0.6-0.5c-0.3-0.1-1.4-0.2-1.4-0.2l-0.5-0.4c0,0-0.1-0.2-0.6-0.3
				c-0.4-0.1-0.2,0.6-0.7-0.1c-0.5-0.7-0.5-0.7-0.9-0.7c-0.5,0-0.5-0.1-0.8-0.1c-0.3-0.1-0.7-0.3-0.7-0.3s-0.6,0-0.9-0.1
				c-0.3-0.1-1.2-0.7-1.2-0.7l-0.8-0.7c0,0-0.1-0.2-0.6,0c-0.5,0.1-0.6,0.1-1.1,0c-0.5-0.1-1.1-0.2-1.1-0.2s-0.4-0.4-0.8-0.5
				c-0.5-0.1-0.6-0.2-1.1-0.3c-0.4-0.1-0.5-0.1-0.8-0.4c-0.3-0.2-1.1-0.6-1.4-0.7c-0.3-0.1-0.7-0.3-0.7-0.3s0.1-0.1-0.7-0.3
				c-0.7-0.3-0.9-0.5-1.2-0.4c-0.3,0-0.8,0-0.8,0l-0.6,0.1c0,0-0.3,0.4-0.7-0.1c-0.3-0.5-0.8-0.9-1.1-0.8c-0.2,0.1-0.7-0.2-0.7-0.2
				l-0.4-0.2c0,0-0.4-0.4-0.7-0.4c-0.3,0-0.7,0.3-0.7,0.3s-0.4-0.2-0.7-0.2c-0.3,0-0.3,0-0.6-0.1c-0.4,0-0.1-0.2-0.6-0.3
				c-0.5,0-0.3,0.1-0.8,0c-0.5-0.2,0-0.3-0.5-0.2c-0.5,0.1-0.7,0-0.7,0s-0.6-0.3-0.9-0.3c-0.3,0-0.4,0-0.8-0.1
				c-0.3-0.1-0.2,0-0.9-0.5c-0.7-0.4-0.8-0.5-1.2-0.4c-0.4,0.1-0.7,0.1-0.7,0.1s-0.4-0.6-0.7-0.5c-0.3,0.1-1,0-1,0H193l-0.7-0.1
				c0,0-0.1-0.1-0.4-0.1c-0.4,0-0.2,0.2-0.6,0.1c-0.5-0.1-0.5-0.2-0.8-0.3c-0.3-0.1-0.1,0-0.4-0.1c-0.2,0,0.2,0.1-0.6-0.1
				c-0.8-0.2-1-0.2-1.3-0.3c-0.2-0.1,0-0.1-0.7-0.2c-0.6-0.1-1-0.2-1.5-0.2c-0.5,0-0.2,0-0.9-0.1c-0.7-0.1-1.1-0.2-1.1-0.2
				s-0.2,0-0.6,0c-0.4,0-0.1-0.1-0.9,0c-0.8,0.1-0.7-0.2-1-0.3c-0.3-0.2-0.8-0.5-0.8-0.5s-0.2-0.1-0.5,0c-0.3,0-0.6,0.2-1,0
				c-0.3-0.1-0.4-0.1-0.7-0.1c-0.3,0-0.6,0-1.1-0.1c-0.5-0.1-1-0.2-1.3-0.3c-0.3-0.1-1-0.4-1.5-0.4c-0.5,0-0.5,0.1-1.2-0.1
				c-0.7-0.2-1.2-0.2-1.6-0.3c-0.5-0.1-1.2-0.1-1.2-0.1s0.1,0-0.5-0.3c-0.6-0.3-0.8-0.2-1.1-0.1c-0.3,0-0.3,0.3-0.6,0.1
				c-0.4-0.2-0.6-0.3-0.8-0.4c-0.3-0.1-1.3,0.1-1.3,0.1s-0.2,0.1-0.8,0c-0.7-0.2-1.4-0.2-1.4-0.2l-0.5-0.5c0,0-0.1-0.1-0.7-0.2
				c-0.6-0.1-0.6-0.1-0.9,0c-0.4,0.1-0.4,0.1-0.8,0c-0.4-0.1-0.3-0.2-0.8-0.1c-0.5,0.1-0.1,0.3-0.6,0.1c-0.5-0.1-0.6-0.2-0.9-0.3
				c-0.4-0.1-0.4,0-0.9-0.2c-0.5-0.2-0.5-0.2-1-0.3c-0.4-0.1-0.5,0.2-1.3,0c-0.8-0.1-0.3,0.1-1.1-0.2c-0.8-0.2-0.7-0.2-1.3-0.4
				c-0.6-0.2-0.5-0.1-1.1-0.4c-0.6-0.2-0.2-0.3-0.8-0.3c-0.6,0-1.2,0-1.4,0c-0.3,0-0.8-0.3-0.8-0.3s-0.5-0.4-0.7-0.4
				c-0.3,0-0.3,0-0.7,0.2c-0.4,0.2-0.2,0.5-0.7,0.3c-0.5-0.2-1.4-0.2-1.4-0.2l-0.5-0.1c0,0-0.3-0.5-0.6-0.4
				c-0.3,0.1-0.5,0.3-0.5,0.3s-0.3,0.1-0.6,0c-0.3-0.1-0.2-0.3-0.5-0.4c-0.3,0-1.2-0.2-1.2-0.2l-1.1-0.2c0,0-0.1-0.2-0.9-0.3
				c-0.8-0.1-1.1-0.1-1.6-0.1c-0.6,0-0.7,0-0.7,0s-0.4-0.2-0.7-0.3c-0.3-0.1,0.5-0.2-0.7-0.3c-1.3-0.1-1.6,0-1.8,0
				c-0.3,0-0.8,0-1.2-0.1c-0.4-0.1-0.8-0.2-1.2-0.3c-0.4-0.2-0.2-0.2-0.8-0.2c-0.7,0-0.5-0.1-0.8,0.1c-0.3,0.1-0.7,0.3-1.1,0.3
				c-0.4-0.1-0.7-0.3-0.7-0.3s0-0.6-0.4-0.6c-0.4,0-0.6,0.2-0.6,0.2h-0.8c0,0-0.1-0.1-0.7-0.4c-0.7-0.2-1-0.2-1-0.2
				s-0.5-0.1-0.8-0.2c-0.3,0-0.2,0.1-0.7-0.3c-0.5-0.4-1-0.6-1.3-0.5c-0.3,0.1-0.5,0.2-0.5,0.2l-0.3,0.4l-0.4-0.3
				c0,0-0.4-0.3-0.8-0.3c-0.3,0-0.3,0.3-0.7,0.2c-0.3-0.1-0.4-0.2-0.7-0.3c-0.4-0.1-0.5-0.2-0.7-0.2c-0.3,0-0.5,0.1-0.8,0.1
				c-0.3-0.1-1-0.4-1-0.4l-0.8-0.1c0,0,0,0.7-0.5,0.4c-0.6-0.3-0.8-0.5-1.2-0.7c-0.5-0.2-1.2-0.3-1.2-0.3s-0.7-0.2-1-0.2
				c-0.3,0-0.6,0-0.6,0l-0.7,0.2c0,0-0.6,0-1-0.1c-0.3-0.2-0.5-0.3-0.9-0.4c-0.5-0.1-0.4-0.1-0.8-0.1c-0.4,0-0.6,0-0.9-0.1
				c-0.3-0.2-0.4-0.4-0.8-0.4c-0.4,0-0.4-0.1-0.8,0c-0.4,0.2-0.9,0.2-1.2,0.1c-0.3-0.2-0.4-0.1-0.7-0.2c-0.4,0-0.2,0.2-0.7-0.1
				c-0.5-0.4-0.3-0.3-0.6-0.5c-0.3-0.2-0.9-0.2-0.9-0.2l-0.7,0.1c0,0-0.3,0.3-0.7-0.2c-0.4-0.5-0.8-0.5-0.8-0.5s-0.1-0.2-0.4,0
				c-0.4,0.2-0.1,0.4-0.6,0.1s-0.5-0.2-0.9-0.3c-0.4-0.1-0.8-0.3-0.8-0.3s-0.3-0.1-0.6-0.2c-0.4-0.1-0.4-0.2-0.9-0.1
				c-0.5,0.1-0.8,0.2-0.8,0.2s-0.3-0.1-0.8-0.1c-0.5-0.1-0.6-0.1-0.8-0.2c-0.3,0-0.2-0.2-0.8-0.2c-0.6,0.1-0.6,0.1-1,0.1
				c-0.3,0-0.9-0.2-0.9-0.2s0.3-0.2-0.7-0.4c-1-0.2-1.1-0.2-1.7-0.2c-0.6,0-0.8,0-1.4-0.2c-0.6-0.2-0.6-0.3-1.2-0.4
				c-0.6-0.1-0.9-0.1-0.9-0.1s0.1-0.4-0.6-0.5c-0.7-0.1-1.1-0.1-1.3-0.1c-0.3,0-0.6,0-0.6,0l-0.6,0.3c0,0-0.3-0.3-0.7-0.4
				c-0.3-0.1-0.8,0-0.8,0S78.3,35,78,35c-0.3,0-0.2-0.1-0.5-0.2c-0.3,0-0.5,0-0.5,0s-0.5,0.2-0.7,0c-0.3-0.2-0.3-0.2-0.6-0.3
				c-0.3-0.1-0.8-0.5-1.2-0.5c-0.4,0-1.2-0.2-1.2-0.2s-0.4-0.4-0.7-0.5c-0.2-0.1-0.8,0.1-0.8,0.1s-0.3,0.2-0.7,0.1
				c-0.4-0.1-0.4-0.1-0.8-0.2c-0.4-0.1-0.2,0-0.6-0.2c-0.3-0.1-0.3-0.2-0.7-0.3c-0.4-0.1-0.5-0.1-0.9-0.1c-0.5,0-1.1,0.1-1.1,0.1
				s0-0.2-0.9-0.6c-0.8-0.4-1-0.6-1.5-0.5c-0.5,0.1-0.3,0.1-0.8,0.1c-0.5,0-0.2,0.2-0.9,0c-0.7-0.1-1.1-0.1-1.1-0.1
				s-0.1-0.3-0.4-0.5c-0.3-0.1,0-0.1-0.6,0.1c-0.6,0.2-0.8,0.2-1.1,0.1c-0.3-0.2-0.8-0.3-0.8-0.3l-1-0.3c0,0-0.2-0.2-0.6-0.2
				c-0.3,0-0.4,0-0.7,0c-0.3,0-0.4-0.1-0.7-0.3c-0.3-0.2-0.6-0.6-1.1-0.6c-0.6,0-0.3,0.1-0.8,0c-0.5-0.1-0.4-0.1-0.7-0.3
				c-0.3-0.1-0.3-0.1-0.8-0.2c-0.5-0.1-0.1,0-0.8-0.2c-0.7-0.2-0.5-0.3-1-0.3c-0.5,0-0.6-0.1-0.8-0.1c-0.3,0,0.1-0.1-0.7-0.3
				c-0.7-0.2-0.6-0.2-1.2-0.2c-0.6,0-0.6-0.1-1.2-0.2c-0.6-0.2-0.8-0.2-1.2-0.3c-0.3-0.1-0.9-0.1-1.2-0.1c-0.3-0.1-0.3-0.1-0.9-0.3
				c-0.6-0.3-1.2-0.5-1.2-0.5s-0.5-0.2-0.9-0.5c-0.4-0.3-0.3-0.3-1-0.4c-0.6-0.1-0.5,0.1-0.8,0c-0.3-0.1-0.7-0.3-1.2-0.5
				c-0.4-0.2-0.9-0.1-1.3-0.5c-0.4-0.3-1.4-0.7-1.4-0.7h-0.8c0,0-0.1-0.3-0.5-0.3c-0.5,0-0.3,0.1-0.7,0c-0.3-0.1-0.8-0.3-0.8-0.3
				s-0.3-0.3-0.8-0.5c-0.5-0.2-1.1-0.2-1.4-0.3c-0.3-0.1,0.5,0-0.6-0.3c-1.1-0.3-1.1-0.8-1.6-1c-0.5-0.2-1.1-0.3-1.6-0.3
				c-0.4-0.1-0.9-0.5-1.2-0.6c-0.3-0.1-1.3-0.6-1.3-0.6s-0.1-0.4-0.6-0.5c-0.5-0.2-0.5-0.3-1.2-0.4c-0.8,0-0.6,0.1-1,0
				c-0.3-0.1-0.7-0.2-0.7-0.2s-0.4-0.4-0.9-0.2c-0.5,0.2-0.9,0-0.9,0s-0.3-0.2-0.4-0.5c-0.1-0.4,0.1-0.6-0.3-0.6
				c-0.4,0-0.7-0.2-0.7-0.2s-0.3-0.3-0.7-0.2c-0.3,0.2-0.5,0.4-0.8,0.3c-0.3-0.1-0.6-0.5-0.6-0.5s0.3-0.2-0.4-0.3
				c-0.7-0.1-0.4,0-0.9,0c-0.5,0-0.4,0.1-1-0.2c-0.7-0.3-0.3,0.1-0.8-0.4c-0.5-0.4-1.7-1-1.7-1s-0.1-0.3-0.9-0.6
				c-0.7-0.4-0.9-0.4-1.3-0.4c-0.4,0-0.9-0.5-0.9-0.5l-0.5-0.1l-0.6-0.6c0,0-0.6-0.7-1-0.7c-0.4,0-0.9-0.4-0.9-0.4s-0.8-0.1-1.2-0.1
				c-0.4,0-1.1,0.1-1.5,0.1c-0.4,0-0.4-0.2-1.2,0c-0.8,0.1-1,1-1,1s0,0.8,0.4,1.3c0.4,0.4,0.9,1,0.9,1s0.3,0.7,0.1,1
				c-0.2,0.4-0.7,1.5-0.7,1.5s-0.2,0.8,0.1,1.2c0.3,0.4,0.6,0.7,0.6,0.7s0.2,0.1,0.4,1.2c0.2,1.1-0.3,1,0.4,1.4
				c0.7,0.4,0.7,0.9,0.7,0.9s0.3,1,0.8,1.4c0.5,0.4,0.8,0.6,0.9,1.1c0.1,0.5,0.2,1.4,0.5,1.8c0.3,0.4,0.9,0.9,1.5,1.4
				c0.6,0.5,1.1,0.7,1.1,0.7s0.7,0,0.8,0.6c0.1,0.6,0.8,1.2,0.8,1.2s0.6,0.3,1,0.5c0.4,0.3,0.1,0.3,0.4,0.7c0.3,0.4,0.9,0.9,0.9,0.9
				l0.7,0.2c0,0,0.4-0.2,1,0.1c0.6,0.3,1.5,0.5,1.5,0.5s0.6,0.2,0.8,0.6c0.2,0.4,0.8,1.3,1.2,1.3c0.4,0,1.5,0.5,1.5,0.5l1.4,0.5
				c0,0,0.7,0.2,1.2,0.3c0.4,0.1,1.1,0.1,1.1,0.1s0-0.2,0.7,0.3c0.7,0.5,0.8,0.5,1.4,0.6c0.6,0.1,0.7,0.1,1.3-0.2
				c0.6-0.3,0.8-0.4,0.8-0.4s0.2,0.6,0.6,1.1c0.4,0.4,0.3,0.9,1.3,1.2c1,0.3,1.6-0.1,1.6-0.1s0.4,1.2,1,1c0.6-0.2,1-0.8,1-0.8
				s0.3-0.6,0.7-0.1c0.4,0.5,0.1,0.8,0.3,1.3c0.2,0.5,0.9,0.2,1.5,0.2c0.6,0,1.6-0.4,1.6-0.4l0.7-0.6c0,0,0.1,0.5,0.7,0.8
				c0.6,0.3,1.5,0.2,1.5,0.2l0.8,0.8c0,0-0.4,0.6-0.3,1c0.1,0.4,0.4,0.5,0.8,0.5c0.4,0,0.8-0.3,0.8-0.3l0.3-0.7l0.4,0.5
				c0,0-0.1,0.6,0.9,0.6c1,0,0.9-0.7,0.9-0.7l0.2-0.6c0,0,0.2,0.7,0.6,0.7s0.9-0.4,1.4-1c0.5-0.6,0.6-0.7,0.6-0.7s0.4,0.3,0.3,0.8
				c-0.1,0.5-0.3,1.3-0.3,1.3s-0.4,0.2-0.4,0.7c0,0.5,0.3,1.3,0.7,0.7c0.4-0.6,0.4-1.2,0.4-1.2s0.7,0.3,1.4,0.7
				c0.7,0.4,1.3,0.1,1.3,0.1s0.6-1.2,1-1.1c0.4,0,1-0.1,1-0.1s0.2,1.1,1,1.1c0.8,0.1,1.4,0.1,1.4,0.1l0.9-0.2c0,0,0.2-0.3,1,0.1
				c0.8,0.4,0.9,0.2,1.6,0.2c0.7,0,0.9-0.1,0.9-0.1l0.7-0.5l0.7,0.3l0.1,0.8l0.7,0.4l0.9,0.2l0.8-0.2c0,0-0.1-0.6,0.7-0.3
				c0.8,0.3,1.2,0,1.2,0l0.8-0.4l0.8-0.2c0,0,0.8,0.2,0.9,0.6c0.1,0.4,0.7,0.9,0.7,0.9l0.7-0.4l0.4-0.8l0.8,0.5l0.5-0.4l1.2,0.1
				l0.7,0.5c0,0-0.1,0.7,0.6,0.9c0.7,0.2,1,0.1,1,0.1l0.6-0.6l0.8,0.5l0.4,0.5l0.7,0.4l0.6-0.6L76.9,47l-0.1-0.6
				c0,0,1.2,0.4,1.2,0.8c0,0.4,0,0.7,0.5,1.1c0.5,0.4,0.8-0.1,0.8-0.1s0.4-0.7,0.8-0.6c0.4,0.1,0.3,0.1,0.7,0.4c0.4,0.3,1,0.2,1,0.2
				s0.1,0.8,0.6,0.8c0.5,0,0.7,0.1,0.8-0.4c0.1-0.5,0-1.1,0-1.1l-0.9-0.2c0,0-0.3-0.2-0.4-0.9c-0.1-0.7,0.8-0.5,0.8-0.5l0.8,0.1
				l0.5,0.8l0.2,0.8l0.8-0.4l0.7-1l0.2-0.9c0,0,0.7,0.1,1.2,0.4c0.5,0.3,1.4,0.8,1.9,0.9c0.5,0.1,1.1,0.1,1.7-0.4
				c0.5-0.5,0.9-0.4,1.4-0.4c0.5,0,0.3-0.3,0.8,0c0.5,0.3,0.9,0.5,1.3,0.4c0.4-0.1,1.1,0,1.1,0s0.7,0.5,1.1,0.6
				c0.4,0.1,1.2,0.4,1.2,0.4l-1.1,0.6c0,0-0.4-0.2-0.8-0.2c-0.4,0-0.1-0.5-1.3-0.1c-1.2,0.4-1.1,0.4-1.9,0.6c-0.8,0.2-1.4,0-1.1,0.6
				c0.3,0.6,0.8,1.2,1.4,1.2c0.6,0,0.8,0,1.4-0.2c0.5-0.2,1.2-0.3,1.2-0.3l0.8-0.2c0,0,0-0.4,0.8,0.3c0.8,0.7,1.2,0.8,1.2,0.8
				l0.8-0.2l0.5-0.2c0,0,1.3,0.3,1.2-0.7c-0.2-1-0.7-1.1-0.7-1.1s-0.4-0.5-0.4-0.9s0.4-0.7,0.4-0.7h0.6v0.6c0,0-0.4,0.9,0.4,0.9
				c0.8,0,0.8-0.8,0.8-0.8s1.1,0.2,0.9,0.6c-0.2,0.4-0.7,0.8-0.7,0.8l-0.6,0.8l0.5,1c0,0,0.8-0.3,1.3-0.1c0.5,0.2,1,0,1,0l0.9-0.7
				l0.7-0.3c0,0,0.2,1.1,0.8,0.9c0.6-0.2,0.8-0.1,1.3-0.5c0.5-0.4,0.6-0.8,1.3-0.8c0.7,0,1,0,1.4,0c0.4,0,0.4-0.4,1,0.2
				c0.6,0.6,0.6,0.3,0.6,0.8c0,0.5,0,0.8,0.5,1.2c0.5,0.4,0.8-0.4,0.8-0.4l-0.1-1l0.2-0.7l0.9-0.1c0,0,0.4,0.9,0.8,0.9
				c0.4,0,0.9,0.1,0.9,0.1s0.4-0.1,0.8-0.2c0.4-0.1,1.3,0.8,1.7,0.5c0.4-0.3,0.6-0.8,0.6-0.8l0.4-0.8l0.6,0.5c0,0,0.4,0.6,1.3,0.6
				c0.9,0,1.2-0.3,1.2-0.3l0.2-0.6l0.9-0.1c0,0,0.1,0.3,0,0.7c-0.1,0.4,0.3,0.8,0.3,0.8l0.7-0.2l0.4-1l0.4-0.4c0,0,0.4,0.1,0.4,0.7
				c0,0.6,0.3,1.2,0.3,1.2h0.7l0.5-0.8l0.9-0.7l0.5-0.1c0,0,0,0,0.4,0.4c0.4,0.4,2.3,0.4,2.3,0.4l1.7-0.2l1.1,0.2
				c0,0,0.3,0.7,0.7,0.8c0.4,0.1,0.8-0.1,0.8-0.1l0.6-0.2l0.5,0.7c0,0-0.2,0.7,0.4,1c0.6,0.2,1-0.1,1-0.1l0.6-0.2c0,0,0.4,0.8,1,0.7
				c0.6-0.1,0.5-0.8,0.5-0.8l0.4-1c0,0,0.7-0.3,1.1-0.1c0.4,0.2,0.9,0.2,0.9,0.2l0.2,1.2c0,0,0.1,0.6,0.6,0.5
				c0.5-0.1,0.6-0.7,0.6-0.7l1,0.4l0.7-0.7c0,0,0.2,0.3,0.6,0.5c0.4,0.2,0.9-0.1,0.9-0.1l0.4-0.8l1.1,0.1l0.9,0.2l1-0.1l0.4,0.3
				c0,0-0.2,0.9,0.2,1.3c0.4,0.4,0.8,0.3,0.8,0.3l0.9-0.4l0.6-0.7l0.7,0.7c0,0,0.4,0.9,0.9,0.6c0.5-0.3,1-0.6,1-0.6l0.6-0.8l0.9,0.6
				c0,0,0.4,0.4,0.8,0.4c0.4,0,1-0.3,1-0.3h0.7l0.3-0.5l0.8,0.8c0,0,0.4,0.1,0.9,0.3c0.5,0.2,0.8,0.4,0.8,0.4s0.1,0.3,0.8,0.5
				c0.7,0.2,0.9,0.1,0.9,0.1l0.6-0.7l0.6,0.6l0.8,0.2h0.8l0.8,0.4l0.4-0.3l1.2,0.3l0.7-1.1c0,0,0.9-0.5,1.6-0.3
				c0.7,0.2,1.6,0.4,1.6,0.4h0.5h0.6c0,0-0.4,0.4-0.3,0.8c0.1,0.4,0.9,0.5,0.9,0.5l0.3-0.9l0.1-0.5l0.9,0.2c-0.1,0-0.2,0-0.3,0.5
				c-0.1,0.6,0.1,1.9,0.1,1.9s0.1,0.3,0.6,0.4c0.5,0.1,1-0.4,1-0.4l0.9,0.2l0.4-0.7l-0.6-0.6l-0.7-0.4l-0.1-0.6c0,0,0.5,0.1,1,0.2
				c0.5,0.1,1.4,0.2,1.4,0.2s1-0.2,1.5-0.1c0.5,0.1,1,0.4,1,0.4s0.4,0.2,1.2,0.4c0.8,0.2,1.4,0.3,1.4,0.3l1.1-0.1
				c0,0,0.3,0.4,0.7,0.4c0.4,0,1.4,0.2,1.4,0.2l0.9,0.4c0,0,0.5,0.7,1,0.7c0.5,0,0.9-0.4,0.9-0.4s1,0.1,1.4,0.4
				c0.4,0.3,1.2,0.7,1.2,0.7l0.7-0.4l0.7,0.4l1.4,0.1l0.6,0.1l1.1,0.3l0.7,0.1l0.6,0.4l0.5,0.1c0,0-0.1,0.3-0.5,0.6
				c-0.4,0.3-1.1,0.5-1.1,0.5l-0.3,0.5c0,0-0.2,0.2,0.2,0.5c0.4,0.3,0.7,0.3,0.7,0.3l0.8,0.1c0,0,0.5,0.1,0.6-0.4
				c0.1-0.5,0-0.8,0-0.8l0.5-0.7l0.6-0.4c0,0,0.6,0.2,1.2,0.2c0.6-0.1,0.9,0.2,0.9,0.2l0.8,0.4c0,0,0.5,0.2,0.8,0.3
				c0.1,0.1,0.3,0.1,0.3,0.1L208,62l0.4,0.4c0,0-0.5,0.7,0,0.9c0.5,0.2,0.8-0.5,0.8-0.5s-0.1-0.3-0.1-0.8c0-0.5,0.3-0.7,0.3-0.7
				l0.8,0.2l0.9-0.1c0,0,0.2,0.1,0.7,0.6c0.5,0.5,1.3,0.3,1.3,0.3l1.1-0.2l0.6,0.5c0,0,0,0.4,0.8,0.6c0.8,0.2,1.4,0.2,1.4,0.2
				l0.9,0.5c0,0,0-0.2,0.9,0.4c0.9,0.5,0.1,0.2,1.2,0.6c1.1,0.4,0.6,0.5,1.2,0.4c0.6-0.1,0.8-0.1,0.8-0.1s0.3,0.6,0.8,0.8
				c0.5,0.2,1.1,0.2,1.1,0.2S224.3,66.2,224.7,66.4z M51.5,42.6l-0.4,0.2l-0.7-0.1l-0.1-0.5l0.3-0.8c0,0,0.3-0.5,0.6-0.3
				c0.3,0.2,0.3,0.2,0.3,0.5c0,0.3-0.1,0.4-0.1,0.4L51.5,42.6z M62.7,44c0,0-0.2-0.2-0.5,0c-0.3,0.1-0.1,0.1-0.4,0.2
				c-0.3,0.1-0.5,0-0.5,0l-0.4-0.4l0.3-0.6l0.6-0.3c0,0,0.2-0.5,0.5-0.4c0.3,0.1,0.3-0.1,0.4,0.2c0.1,0.3,0.1,0.5,0.1,0.5l0.3,0.4
				L62.7,44z M74.1,44c0,0,0,0.1-0.3,0.4c-0.4,0.2-0.5,0.5-0.9,0.5c-0.4,0-0.5-0.1-1-0.1c-0.4,0-0.2-0.1-0.6,0c-0.4,0-0.9,0.5-1,0
				c-0.1-0.4,0.4-0.5,0.4-0.5l0.5-0.1c0,0-0.2-0.1,0.3-0.4c0.5-0.4,0.8-0.4,0.8-0.4l0.3-0.1l0.5-0.1c0,0,0-0.3,0.4-0.1
				c0.4,0.2,0.6,0.5,0.6,0.5l0.4,0.2L74.1,44z M76.4,43.8L75.7,44c0,0-0.5,0-0.5-0.4c0-0.4,0.3-0.3,0.3-0.3l0.3-0.4l0.7,0.5
				L76.4,43.8z M109.9,45.9c-0.3,0.1-0.6,0.1-0.6,0.1s-0.1,0-0.3-0.4c-0.2-0.3,0-0.6,0-0.6s0.1-0.1,0.4-0.1c0.3,0,0.3-0.3,0.4,0
				c0.1,0.3,0.1,0.2,0.1,0.5C110,45.6,110.2,45.7,109.9,45.9z M116.7,48.2c0,0-0.5,0.3-0.9,0.3c-0.4,0-0.3,0.1-0.4-0.2
				c-0.2-0.3-0.2-0.2-0.4-0.4c-0.2-0.2-0.3-0.2-0.6-0.3c-0.3-0.1-0.4,0-0.4,0s0,0.1-0.1,0.4c-0.1,0.3-0.3,0.3-0.3,0.3l-0.6-0.3
				l-0.6-0.2c0,0-0.2-0.1-0.4-0.2c-0.2-0.1-0.1,0-0.2-0.3c-0.1-0.2,0.1-0.2,0.1-0.2s0.6,0.2,0.8,0.1c0.2-0.1,0.4,0.1,0.7,0
				c0.3,0,0.2,0,0.6,0c0.4,0,0.8,0,0.8,0s0.4,0.1,0.7,0.1c0.3,0,0.3,0,0.5,0c0.3,0,0.4,0.1,0.4,0.1l0.3,0.5L116.7,48.2z"/>
			<path class="st1" d="M90,47.5c-0.2-0.1-0.7,0-0.7,0l-0.9,0c0,0-0.3,0-0.7,0.1c-0.3,0.1-0.2,0.2-0.5,0.4c-0.3,0.2-0.1,0.4-0.2,0.7
				c-0.1,0.3,0,0.3,0.3,0.5c0.3,0.2,0.7,0.2,0.7,0.2s0.5-0.2,0.8-0.2c0.3,0,0.5,0.3,0.5,0.3l0.5,0.1c0,0,0.4-0.6,0.5-0.9
				c0.2-0.3,0.1-0.4,0-0.9C90.3,47.4,90.2,47.7,90,47.5z"/>
			<path class="st1" d="M72.3,47.4c0-0.2-0.1-0.3-0.5-0.7c-0.4-0.3-0.5,0.1-0.5,0.1l-0.4,0.6c0,0,0,0.1-0.2,0.5
				c-0.2,0.5,0,0.4,0.2,0.7c0.1,0.2,0.7,0.2,0.7,0.2s0.3-0.3,0.6-0.4c0.3-0.1,0.3-0.3,0.3-0.3S72.3,47.6,72.3,47.4z"/>
			<path class="st1" d="M111.1,50h-0.7l-0.5,0.3c0,0,0,0.3,0.1,0.5c0.1,0.2,0.1,0.4,0.2,0.8c0.1,0.4,0.5,0.2,0.5,0.2
				s0.2,0.1,0.5,0.1c0.4-0.1,0.3-0.3,0.4-0.7c0.1-0.4,0-0.4-0.1-0.7C111.5,50.1,111.1,50,111.1,50z"/>
			<path class="st1" d="M184.7,56.1l-0.3-0.2l-0.3,0.1c0,0-0.5,0-0.5,0.3c0.1,0.3-0.1,0.3,0.1,0.6c0.3,0.3,0.6,0.6,0.9,0.4
				c0.3-0.3,0.4-0.3,0.3-0.6C184.9,56.4,184.7,56.1,184.7,56.1z"/>
			<path class="st1" d="M220.8,66.5c-0.1-0.3-0.1-0.3-0.1-0.5c-0.1-0.2-0.5-0.2-0.5-0.2c-0.3-0.1-0.8,0.1-0.8,0.1s-0.2,0.3-0.2,0.5
				c-0.1,0.2-0.1,0.3,0.2,0.7c0.3,0.4,0.3,0.4,0.8,0.3c0.5-0.1,0.4-0.1,0.6-0.5C221.1,66.4,220.9,66.8,220.8,66.5z"/>
			<path class="st1" d="M558.9,94.7c-0.4-0.3-0.2-0.3-0.7-0.3c-0.4,0-0.4,0.2-0.6,0.3c-0.2,0.2-0.6,0-0.6,0l-0.7-0.6
				c0,0-0.2-0.2-0.6-0.3c-0.3-0.1-0.4-0.2-0.7-0.1c-0.4,0.1-0.7,0.1-1,0.2c-0.3,0.1-0.7,0.2-0.9,0.3c-0.2,0-0.8-0.1-0.8-0.1
				s-0.6-0.4-0.9-0.4c-0.3,0-0.9,0-0.9,0l-0.7,0.2c0,0-0.5-0.1-0.8-0.1c-0.3,0-1.3-0.1-1.6-0.1c-0.3,0-0.7,0.1-1.1,0
				c-0.4-0.1-0.7-0.2-1.1-0.2c-0.4,0.1-1.2,0.2-1.2,0.2l-0.9-0.2c0,0-0.3,0.1-0.5,0.1c-0.2,0-0.4,0-0.8-0.1c-0.4-0.2-0.7-0.3-1-0.3
				c-0.3,0-0.8-0.1-0.8-0.1s-0.3,0.3-0.7,0.2c-0.3-0.1-0.2-0.3-0.8-0.2c-0.6,0.1-0.8,0.1-1.2,0.1c-0.4,0-0.4,0-0.8,0
				c-0.4,0,0.1,0.2-0.7-0.1c-0.8-0.2-1.3-0.3-1.8-0.3c-0.5,0.1-1.5,0.1-1.5,0.1s-0.2,0.3-0.8,0.1c-0.6-0.2-0.7-0.5-1.1-0.5
				c-0.4,0-0.4,0-0.7,0.1c-0.3,0.1-0.6,0.2-1,0.2c-0.4-0.1-0.9-0.3-1.2-0.5c-0.3-0.1-1-0.1-1.3-0.1c-0.2,0-1,0.2-1.4,0.2
				c-0.4-0.1-1.3,0-1.3,0s-0.4-0.1-0.8-0.1c-0.4,0-0.5-0.1-0.9,0c-0.5,0-0.2,0.2-0.7,0c-0.6-0.3-1-0.5-1.4-0.4
				c-0.5,0.2-0.5,0.4-0.9,0.3c-0.4,0-1.2,0.1-1.5,0.1c-0.3,0-0.1,0.1-0.7,0.1c-0.6,0.1-0.8-0.2-1.1-0.3c-0.4-0.1-1-0.1-1.2,0.1
				c-0.2,0.1-0.3,0.5-0.6,0.5c-0.2,0-0.2,0.1-0.7-0.2c-0.4-0.3-0.3-0.4-0.6-0.3c-0.3,0-1.8,0-1.8,0s-0.8,0.1-1,0.1
				c-0.3,0-0.5-0.2-0.9,0c-0.4,0.2-0.8,0-0.8,0l-0.6-0.2c0,0-0.2,0-0.6,0.1c-0.4,0.1-1-0.1-1-0.1s-0.6-0.4-0.8-0.3
				c-0.2,0.1,0.2,0-0.5,0.2c-0.6,0.2-0.4,0-0.7-0.1c-0.3-0.1,0.2-0.3-0.7-0.2c-0.9,0.1-1,0.2-1,0.2s-0.3,0-0.7-0.1
				c-0.4-0.1-0.8,0.1-1.1,0c-0.3,0-0.8-0.3-1.2-0.2c-0.5,0.1-0.5,0.1-0.8,0.1c-0.3-0.1-0.5-0.2-1-0.1c-0.4,0.1-0.1,0-0.7,0.1
				c-0.5,0.1-0.9,0.1-1.5,0c-0.6-0.1-0.7-0.1-1.3-0.1c-0.6,0-1.1-0.1-1.4,0c-0.3,0.1-0.7,0.2-1.3,0.2c-0.6,0-0.1,0.1-1,0
				c-0.9-0.2-0.6-0.2-1.4-0.2c-0.9,0-1.9-0.1-2.3-0.1c-0.4,0-0.5,0.1-1.1,0.1c-0.6,0.1-0.8,0.1-1.3,0c-0.6,0-0.9-0.1-1.2,0
				c-0.3,0-0.7-0.2-1.1-0.1c-0.4,0.1-1.4,0-1.7,0c-0.3,0-0.6-0.2-1,0c-0.4,0.1-0.2,0-0.7,0.1c-0.4,0.1-0.4,0-0.8-0.1
				c-0.4-0.1-1-0.2-1.7-0.3c-0.7-0.1-0.9,0-1.3,0.1c-0.4,0.1-0.6,0.3-0.9,0.2c-0.3-0.1-0.5-0.1-1-0.1c-0.5,0-0.2,0.2-0.9,0
				c-0.7-0.3-1.1-0.3-1.4-0.3c-0.2,0-0.5,0.1-0.8,0.1c-0.3,0-0.6-0.1-0.6-0.1s-0.4-0.3-0.8-0.3c-0.4,0-0.6-0.2-0.9-0.1
				c-0.3,0.1-0.5,0.3-0.8,0.2c-0.3,0-0.5-0.2-1.1-0.2c-0.6,0-1-0.3-1.2,0c-0.2,0.2,0,0.4-0.4,0.3c-0.5-0.1-0.5-0.2-1-0.2
				c-0.5,0-0.8-0.1-1.4,0c-0.6,0.1-0.6,0-1-0.1c-0.4,0-0.2,0-0.8,0.1c-0.6,0-0.6-0.1-1.3-0.2c-0.8-0.2-0.9-0.6-1.4-0.5
				c-0.5,0.1-0.8,0.2-1,0.2c-0.2,0-0.4,0.2-0.7,0.3c-0.3,0.1-0.3-0.1-0.6-0.1c-0.2-0.1-0.7-0.2-1.1-0.2c-0.5-0.1-1.7,0-1.7,0
				s-0.3,0.1-0.7,0.1c-0.4,0-0.4-0.1-0.9-0.1c-0.6,0-0.5,0.2-0.9,0.1c-0.4-0.1-0.4-0.1-0.8-0.2c-0.5-0.2-0.1-0.2-1-0.3
				c-0.9-0.1-2-0.1-2.3,0c-0.2,0-0.4,0.1-0.8,0.2c-0.4,0.1-0.6,0.3-0.9,0.1c-0.3-0.1-0.2-0.2-1-0.2c-0.9,0-0.9,0-1.1,0.1
				c-0.2,0-0.3,0-0.9,0c-0.5,0.1-1.4,0-1.8,0c-0.5,0-0.9-0.1-1.5-0.1c-0.5,0-0.9-0.1-1.3-0.1c-0.4,0-0.7-0.2-1.7-0.2
				c-1,0-0.9,0-1.6,0c-0.7,0-1.1-0.1-1.6,0c-0.5,0.1-0.6,0-0.6,0s0-0.4-0.5-0.2c-0.4,0.1-0.2,0.4-0.5,0.4c-0.3,0-0.1,0.2-0.6,0
				c-0.5-0.3-1.2-0.4-1.4-0.4c-0.2,0-0.6-0.1-1.1,0c-0.5,0.1-0.5,0-1,0.1c-0.5,0.1-0.6,0.1-1,0.1c-0.4,0-0.9,0-1.2,0
				c-0.3-0.1-0.6-0.2-0.8-0.3c-0.2-0.1-0.2-0.4-0.7-0.4c-0.6,0.1-0.6,0-1,0.2c-0.4,0.2-0.6,0.4-0.9,0.5c-0.2,0.1-0.2,0.3-0.7,0.2
				c-0.5-0.2-0.7-0.6-0.9-0.6c-0.3,0-0.7,0-1.2-0.1c-0.6,0-1.2,0.1-1.4,0.2c-0.2,0.1-0.5,0.3-0.5,0.3l-0.6,0.1c0,0-0.2-0.3-0.5-0.2
				c-0.4,0.1-0.2,0.3-0.7,0.2c-0.5-0.2-0.7-0.5-1.2-0.6c-0.5-0.1-1,0-1.7,0c-0.7,0-0.4,0.1-1.2,0.1c-0.9,0-1,0-1.6-0.1
				c-0.6-0.1-0.9-0.2-1.1-0.4c-0.2-0.2-0.5-0.5-0.5-0.7c0-0.2,0-0.4,0.1-0.6c0.1-0.3,0.3-0.1,0.4-0.7c0.1-0.7,0.1-0.7,0.3-1.1
				c0.1-0.3-0.3-0.3,0.1-0.6c0.4-0.3,0.6-0.5,0.6-0.7c0-0.2-0.1-0.2,0.1-0.4c0.2-0.2,0.5-0.6,0.5-0.9c0.1-0.3,0-0.4,0-0.6
				c-0.1-0.2-0.1,0-0.3-0.5c-0.2-0.5-0.3-0.4-0.2-0.8c0.1-0.4,0-0.6,0.1-1c0.1-0.4,0.3-0.9,0.3-1.3c0-0.4,0-1.1,0-1.1s0-0.1,0.1-0.5
				c0.1-0.3,0.2-0.4,0.2-0.7c0.1-0.3,0.2-0.6,0.2-0.6s-0.2,0.1,0.3-0.3c0.5-0.4,0.6-0.7,0.8-0.9c0.2-0.2,0.3-0.3,0.6-0.8
				c0.3-0.6,0.1-1.4,0.1-1.4l-0.4-0.5c0,0-0.5,0.1-0.2-0.5c0.2-0.6,0.7-0.9,0.9-1.1c0.1-0.3,0.4-0.2,0.6-0.6
				c0.2-0.4,0.5-0.8,0.3-1.4c-0.2-0.6-0.4-1-0.4-1s-0.1-0.7-0.1-0.9c0-0.2,0.1-0.3,0.1-0.6c0-0.3,0-0.8,0-1.2
				c0.1-0.3,0.1-0.6-0.1-0.9c-0.2-0.3-0.6-0.7-0.6-0.7s0.1-0.3-0.3-0.6c-0.4-0.4-1-1-1-1s-0.5-0.7-0.7-0.7c-0.2-0.1-0.7-0.2-0.8-0.4
				c-0.1-0.2-0.1-0.2-0.7-0.6c-0.6-0.4-0.7-0.6-0.7-0.6l-0.3-0.3c0,0-0.7-0.4-1-0.4c-0.3,0-0.3,0-0.5-0.2c-0.2-0.3,0-0.3-0.4-0.3
				c-0.4,0-0.8-0.2-0.8-0.2s-0.4-0.1-0.5-0.4c-0.1-0.2-0.7-0.6-0.7-0.6s-0.1-0.3-0.4-0.7c-0.3-0.4,0.1-0.3-0.6-0.5
				c-0.6-0.2-1-0.3-1.2-0.3c-0.2-0.1-0.2-0.1-0.7-0.3c-0.5-0.2-0.5-0.4-1-0.4c-0.4,0-1.8-0.2-2-0.2c-0.3,0-1.3,0-1.3,0s-0.3,0-0.6,0
				c-0.3-0.1-0.3-0.4-0.9-0.4c-0.7,0-0.8-0.2-1,0.2c-0.2,0.4-0.3,0.2-0.7,0.2c-0.3,0-1.2-0.2-1.5-0.1c-0.3,0.1-0.8,0.4-0.8,0.4
				s-0.4-0.4-0.6-0.5c-0.2-0.1-0.8,0-0.8,0s-0.1,0.3-0.5,0.1c-0.4-0.1,0-0.2-0.5-0.2c-0.5,0-0.6,0.2-0.6,0.2s-0.6,0-0.8-0.1
				c-0.3,0-1.5-0.3-1.7-0.1c-0.3,0.2-0.3,0.1-0.4,0.4c-0.2,0.3-0.3,0.6-0.3,0.6c-0.4,0-0.3-0.1-0.7,0c-0.4,0.1-0.8,0.1-0.8,0.1
				l-0.5,0.1c0,0,0.1,0.2-0.3,0.3c-0.5,0-0.9,0-0.9,0s-0.2-0.1-0.6-0.2c-0.4-0.1-0.6-0.2-1-0.1c-0.4,0.2-0.6,0.3-1,0.5
				c-0.3,0.2-0.2,0.1-0.5,0.3c-0.2,0.3-0.4,0-0.4,0.4c-0.1,0.4-0.3,0.6-0.3,0.6s-0.2,0-0.5-0.1c-0.3-0.1,0-0.4-0.6-0.1
				c-0.6,0.3-0.6,0.5-0.8,0.8c-0.2,0.3-0.4,0.7-0.6,0.9c-0.2,0.1-0.7,0.5-0.7,0.5l-0.4,0.4c0,0,0.3,0.3,0.3,0.5
				c0,0.2-0.1,0.1-0.3,0.3c-0.2,0.2-0.4,0.2-0.4,0.5c0,0.3,0.1,0.6,0.1,0.8c0,0.2-0.4,0.6-0.4,0.6s-0.2,0.2-0.5,0.5
				c-0.3,0.3-0.3,0.4-0.4,0.6c-0.2,0.2-0.3-0.2-0.5,0.3c-0.2,0.4-0.1,0.8-0.2,1c0,0.2-0.4,0.5-0.4,0.5l-0.3,0.7l0.1,0.6
				c0,0-0.1,0.3-0.1,0.5c0,0.2-0.1,0.1-0.1,0.5c0,0.3-0.4,0.8-0.4,0.8s0,0.4,0,0.6c-0.1,0.2,0,0.3,0.1,0.5c0.1,0.2,0.2,0.2,0.2,0.5
				c0,0.3-0.1,0.3,0,0.6c0.2,0.2,0.6,0.4,0.6,0.4l0.5,0.7c0,0,0.5,0,0.6,0.4c0.1,0.3,0,0.4,0.1,0.8c0.1,0.3,0,0.3,0.4,0.6
				c0.4,0.2,0.4-0.1,0.6,0.2c0.2,0.3,0.5,0.5,0.6,0.8c0.1,0.3-0.2,0.5,0.2,0.9c0.3,0.4,0.6,0.6,0.6,0.6s0,0.2,0.1,0.4
				c0.2,0.2,0.3,0.6,0.4,0.9c0.1,0.3,0.3,0.3,0.3,0.8c0.1,0.5,0.2,0.5,0.2,0.8c0,0.3,0.6,1.3,0.6,1.3s0.1,0.6,0.2,1
				c0.1,0.4,0.2,0.6,0.1,0.9c-0.1,0.3-0.2,0.5-0.3,0.8c-0.1,0.4,0.4,0.9,0.4,0.9c0.3,0.2,0.5,0.5,0.5,0.9c0,0.3-0.1,0.9-0.1,0.9
				s0.1,0.5,0.1,0.8c-0.1,0.3,0.1,0.3-0.3,0.6c-0.4,0.3-0.5,0.6-0.5,0.6l-0.7,0.6c0,0-0.3,0.1-0.6,0.1c-0.4,0.1-0.4,0.1-0.8,0.1
				c-0.4,0,0,0-0.9,0c-0.9,0-0.5,0.1-1.2,0c-0.7,0-0.2,0-1.5,0c-1.3-0.1-1.6-0.1-1.6-0.1s-0.8-0.2-1.1,0c-0.2,0.1-0.3-0.1-0.6,0
				c-0.4,0.1-0.7,0.2-0.7,0.2l-0.7-0.1c0,0,0.2,0.2-0.4,0c-0.6-0.3-0.5-0.4-1.1-0.4c-0.6,0-1,0-1,0l-0.6,0.3c0,0-0.4,0.2-0.7,0
				c-0.3-0.2-0.5-0.3-0.9-0.2c-0.4,0.1-0.6,0.2-0.8,0.1c-0.2-0.1,0-0.1-0.5-0.3c-0.5-0.1-0.4-0.3-1-0.2c-0.6,0-0.8,0.1-1,0.2
				c-0.3,0.1-0.5,0.4-0.8,0.4c-0.3,0-0.3-0.4-1-0.5c-0.7-0.1-1.6-0.1-1.6-0.1s-0.2-0.3-0.5-0.1c-0.4,0.3-0.5,0.3-0.7,0.1
				c-0.2-0.1,0.1-0.3-0.6-0.3c-0.7,0-0.5,0.3-0.8,0.4c-0.3,0.1-0.7,0-0.9,0c-0.2,0-0.5,0.1-0.7,0.1c-0.3,0-0.6,0.2-0.8,0.1
				c-0.2,0-0.9-0.1-0.9-0.1l-0.7-0.3l-1.1-0.1c0,0-0.4,0.1-0.6,0.1c-0.2,0-0.3,0-0.6-0.1c-0.3,0-0.1-0.2-0.7,0
				c-0.5,0.3-0.5,0.4-0.8,0.4c0,0,0,0,0,0c0,0-0.1-0.1-0.5-0.2c-0.9-0.3-0.8-0.5-1.2-0.3c-0.3,0.1-0.9,0.1-1.1,0.2
				c-0.2,0-0.1-0.1-0.8-0.1c-0.7-0.1-0.6-0.2-1-0.1c-0.4,0.1-0.6,0.3-1,0.3c-0.4,0-0.5-0.1-0.7-0.1s-0.6-0.2-0.9-0.1
				c-0.4,0.1-0.4,0-0.7,0.1c-0.3,0.1-0.6,0.2-0.8,0.2c-0.2-0.1-0.5-0.2-0.7-0.3c-0.3,0-0.7-0.1-1,0c-0.4,0.1-1.6,0-1.6,0h-0.7
				c0,0-0.4,0.1-0.7,0c-0.3-0.1-0.4-0.1-0.7-0.3c-0.3-0.2-0.3-0.4-0.7-0.4c-0.4,0.1-0.5,0-0.9,0.2c-0.4,0.2-0.7,0.3-0.7,0.3
				s-0.4-0.1-0.7-0.3c-0.3-0.1,0-0.2-0.7-0.3c-0.7-0.1-0.9-0.1-1.3,0c-0.4,0.1-0.7,0.4-0.7,0.4s-0.2,0.2-0.7-0.1
				c-0.4-0.3-0.3-0.2-0.9-0.3c-0.6,0-1.2,0.2-1.2,0.2l-0.6-0.1c0,0-0.4,0.3-0.7,0.3c-0.2,0-0.6,0-0.9-0.1c-0.2-0.1-0.5-0.1-1-0.2
				c-0.5,0-1.1,0-1.4,0c-0.2,0-0.4-0.2-1.1-0.1c-0.7,0.1-1.1,0.2-1.3,0.2c-0.3-0.1-0.3-0.2-0.8-0.1c-0.4,0.1-0.8,0-1.1,0.1
				c-0.2,0.1-0.2,0.3-0.7,0.1c-0.5-0.2-0.3-0.3-0.9-0.3c-0.6,0-1.2,0-1.2,0s-0.2-0.1-0.7,0c-0.4,0.2-0.4,0.1-0.8,0.2
				c-0.4,0.2-0.8,0.1-0.8,0.1l-0.6,0.1c0,0-0.9-0.3-1.2-0.2c-0.4,0.1-0.6,0.1-0.6,0.1s0.1-0.2-0.5-0.2c-0.6,0-0.8-0.2-1-0.1
				c-0.3,0.2-0.3,0.3-0.7,0.3c-0.4-0.1-0.9-0.3-0.9-0.3s-0.4,0-0.7,0.1c-0.4,0-0.8,0.1-1,0.1c-0.2-0.1-0.2-0.2-0.6-0.2
				c-0.4,0-0.7,0.1-1,0c-0.2-0.1,0.1-0.2-0.4-0.2c-0.5,0-0.3,0-0.7,0.2c-0.4,0.1-0.2,0.1-0.8,0c-0.7,0-0.5,0-0.8-0.1
				c-0.3-0.1-0.1-0.2-0.6-0.4c-0.6-0.1-0.9,0-1.4,0c-0.5,0-0.5,0.2-1,0.2c-0.4,0-0.3,0-0.7,0c-0.4,0-0.1,0-0.7,0c-0.7,0-0.7,0-1.1,0
				c-0.4,0-0.3,0.1-0.6,0.2c-0.3,0.1-0.2,0.2-0.6,0.1c-0.5-0.2-0.3-0.3-0.8-0.2c-0.5,0.1-0.7,0.1-1,0.2c-0.2,0.1-0.5,0.2-0.7,0.1
				c-0.2-0.2-0.4-0.3-0.8-0.4c-0.3,0-0.5-0.2-0.7-0.1c-0.2,0.1-0.8,0.4-0.8,0.4s0,0.3-0.2,0.3c-0.2,0,0.2,0.1-0.4,0
				c-0.6-0.1-0.8-0.1-1.2-0.1c-0.4,0-0.6,0-1.1,0c-0.5,0-1.3-0.1-1.3-0.1s0,0.1-0.2,0.2c-0.2,0.1,0.2,0.3-0.4,0
				c-0.5-0.3-0.1-0.2-0.7-0.3c-0.7,0-1,0.1-1,0.1s-0.1,0.3-0.3,0.3c-0.2,0-0.1,0.2-0.5,0.1c-0.4-0.1-0.3-0.2-0.8-0.1
				c-0.6,0-0.5,0-0.8,0c-0.3,0-0.2,0.1-0.6,0.2c-0.3,0.1-0.6,0.1-0.8,0.1c-0.3,0-0.1,0-0.5-0.1c-0.5-0.2-0.1-0.4-0.7-0.2
				c-0.6,0.2-0.5,0.1-0.8-0.1c-0.3-0.2-0.6-0.2-0.8-0.1c-0.2,0-0.6,0.4-0.9,0.4c-0.3,0-0.7,0.1-1.2,0.1c-0.5,0-1.3,0-1.3,0l-0.6-0.1
				c0,0-0.7-0.2-1,0c-0.3,0.2-0.7,0.4-1.1,0.6c-0.4,0.2-0.9,0.2-0.9,0.2l-0.8-0.2c0,0-0.2-0.3-0.6-0.3c-0.4,0.1-1.1,0.3-1.1,0.3
				s-0.3,0.4-0.6,0.3c-0.3-0.1-0.2-0.2-0.6-0.3c-0.4-0.1-0.4,0-0.4,0s-0.1,0.1-0.4,0.2c-0.2,0.1-0.2,0-0.5-0.1
				c-0.3-0.1-0.4-0.1-0.4-0.1l-0.7,0.5c0,0-0.2,0.1-0.7,0.1c-0.5-0.1-0.2-0.1-0.7-0.1c-0.5-0.1-0.8-0.3-0.9-0.1
				c-0.2,0.2-0.5,0.2-0.5,0.2s0.1,0.2-0.4,0c-0.5-0.2-0.4-0.2-0.8-0.2c-0.4,0,0.1,0-0.6,0c-0.7-0.1-0.8-0.2-1.3-0.1
				c-0.5,0.1-0.7-0.2-1.2,0.1c-0.5,0.3-0.5,0.3-0.7,0.4c-0.3,0.1-0.3,0.2-1.1,0.2c-0.8,0.1-0.6,0-1.4,0c-0.9,0-1.6,0-1.6,0
				s-0.3,0.2-0.7,0.2c-0.4,0-0.5-0.1-1.1-0.1c-0.6,0-0.7,0-1.1,0c-0.4,0,0,0-0.8,0c-0.8,0-0.4-0.2-0.9,0.1c-0.5,0.4-0.4,0.5-0.8,0.4
				c-0.5-0.1-0.3-0.1-1.2-0.2c-0.9,0-1-0.2-1.7,0c-0.7,0.1-0.8,0-1,0.3c-0.2,0.3-0.5,0.3-0.8,0.3c-0.3,0-0.4-0.2-0.7,0
				c-0.3,0.2-0.4,0.3-0.4,0.3s-0.4,0.2-0.5-0.1c-0.1-0.2-1-0.8-1-0.8s-0.7-0.3-0.9-0.3c-0.2,0-0.6-0.3-0.9-0.2
				c-0.3,0.2-0.3,0.3-0.7,0.2c-0.3-0.1-0.3-0.2-0.7-0.3c-0.5,0-0.8-0.3-1.1-0.3c-0.3-0.1-0.5-0.1-0.8,0c-0.3,0-0.7-0.1-0.9-0.2
				c-0.2,0-0.5-0.3-0.5-0.3l-0.1-0.4c0,0,0.3-0.4,0.3-0.6c0-0.2,0-0.4,0-0.7c0-0.3,0.3-0.1,0-0.4c-0.4-0.2-0.6-0.5-0.6-0.5
				s-0.7-0.1-1,0c-0.3,0.2-0.3,0.4-0.3,0.6c0,0.2-0.2,0.8-0.2,0.8l-0.3,0.3c0,0-0.5-0.1-0.1,0.4c0.4,0.5,0.3,0.6,0.3,0.6
				s-0.2,0.1-0.2,0.5c-0.1,0.4-0.2,0.8,0.2,1.3c0.4,0.5,0.1,0.3,0.6,0.7c0.5,0.4,0.3,0.3,0.8,0.6c0.5,0.3,0.7,0.4,1.2,0.5
				c0.6,0.1,1,0.1,1.2,0.1c0.2,0,0.3,0.2,0.8,0.2c0.6,0,0.9-0.1,1.1,0c0.2,0.2,0.3,0.3,0.7,0.3c0.4,0,0.7,0,1.1,0
				c0.3-0.1,0.2,0.3,0.7-0.1c0.6-0.4,1.1-1,1.1-1l0.3-0.3l0.6,0.3c0,0,0.4,0.5,0.6,0.5c0.2,0,0.4,0.2,0.4,0.2s-0.1,0.2-0.1,0.4
				c0,0.2-0.2,0.5,0.2,0.9c0.4,0.4,0.6,0.2,0.8,0.5c0.2,0.3,0.2,0.4,0.8,0.4c0.5,0,0.6-0.2,0.9-0.1c0.3,0,0.3-0.1,0.7,0.1
				c0.3,0.1,0.4,0.1,0.7,0.3c0.3,0.1,1.2,0.3,1.2,0.3s0.6,0.2,1,0.5c0.5,0.3,1.4,0.4,1.6,0.4c0.3-0.1,0.9-0.1,0.9-0.1
				c0.2,0.3,0.5,0.4,0.9,0.4c0.5-0.1,0.7-0.2,1,0c0.3,0.2,0.3,0,0.5,0.2c0.2,0.2,0.5,0.1,0.7,0.1c0.2,0,0.4,0,0.6,0.1
				c0.2,0.1,0-0.1,0.4,0.2c0.4,0.4,0.8,0.6,1.3,0.6c0.4,0.1,1.1,0.1,1.5,0.1c0.4,0,2.2,0,2.5,0c0.3,0,0.4,0.2,1.4,0
				c0.9-0.2,2.3-0.1,2.5-0.2c0.2,0,0.4-0.1,1-0.1c0.6-0.1,0.8,0.1,1.2,0.1c0.4,0.1,1,0.3,1.4,0.1c0.4-0.2,1.5-0.2,1.9-0.3
				c0.4,0,1.4,0.3,1.7,0.3c0.3-0.1,0.4,0.1,1.1,0.1c0.8,0,1.1-0.1,1.3-0.1c0.3-0.1,0.7-0.1,1.1-0.2c0.4-0.1,0.4-0.1,0.7-0.1
				c0.3,0.1,0.3,0.3,1,0.2c0.7,0,0.7,0,1.3-0.1c0.6-0.1,1.5-0.1,1.8-0.1c0.3,0,0.7,0.4,1.3,0.4c0.6,0,1,0,1.4,0
				c0.4-0.1,0.5,0,1.3-0.1c0.8-0.1,1.2-0.1,1.6-0.1c0.4,0,1.2,0.1,1.5,0c0.3,0,2.2,0,2.5,0c0.2,0,1,0,1.5-0.1c0.5,0,1.1,0.1,2.1-0.1
				c0.9-0.2,1.4-0.3,1.9-0.1c0.5,0.1,2.4,0.1,2.8,0.1c0.4-0.1,0.7-0.2,1.3-0.1c0.6,0,0.8,0.1,1.2,0c0.4-0.1,2.9,0,3.2,0
				c0.3,0,0.5,0,1.3,0.1c0.7,0.1,1.4,0,1.9,0c0.6,0,0.6,0,1.4,0.1c0.8,0,1.7,0.1,1.9-0.1c0.2-0.1,0.8-0.4,0.8-0.4l0.7,0
				c0,0,1.3,0.6,1.6,0.5c0.4,0,0.9,0,1.3-0.2c0.4-0.2,1.2-0.2,1.2-0.2l0.8,0.1c0,0,0.8,0.5,1.3,0.2c0.4-0.3,0.3-0.5,0.6-0.5
				c0.3-0.1,0.5-0.4,0.7-0.1c0.2,0.3,0.3,0.5,0.3,0.5s0.1,0.1,1,0.3c0.8,0.1,0.8,0.2,1.4,0c0.6-0.2,1.3-0.4,1.7-0.4
				c0.3-0.1,1-0.1,1.4-0.1c0.4,0,0.4-0.3,1,0c0.6,0.3,1.4,0.3,1.4,0.3s0.5-0.3,0.8-0.3c0.3,0,0.4,0.1,0.7,0.2c0.3,0.1,0.5,0.4,1,0.2
				c0.4-0.2,0.4-0.2,0.8-0.5c0.4-0.3,0.3-0.4,0.5-0.4c0.2,0,0.1,0,0.4,0.3c0.3,0.3,0.6,0.3,0.9,0.3c0.3,0.1,0.4,0.2,0.8,0.1
				c0.4-0.1,0.7-0.3,0.7-0.3s0.6-0.1,1,0c0.5,0,0.8,0.2,1,0.4c0.3,0.2,0.2,0.2,0.9,0.3c0.8,0.1,0.9,0.1,1.1,0
				c0.2-0.1,0.7-0.5,0.7-0.5s0.5-0.2,0.8-0.2c0.3,0.1,0.5,0.1,0.7,0c0.2-0.1,0.2-0.3,0.5-0.3c0.2,0.1,0.3,0.2,0.7,0.4
				c0.4,0.1,0.7,0.3,1.2,0.2c0.4-0.1,1.2-0.3,1.6-0.3c0.5,0,1.1-0.2,1.1-0.2s-0.3-0.2,0.4-0.3c0.8-0.1,1.1,0,1.3,0c0.3,0,0.6,0,1,0
				c0.3,0,0.5,0,0.9-0.1c0.4,0,0.5,0.1,0.7,0.3c0.2,0.3,0.6,0.5,0.9,0.4c0.4,0,0.3-0.3,0.6-0.3c0.3-0.1,1.1-0.2,1.1-0.2
				s0.2,0.3,0.6,0.4c0.5,0,0.8,0.1,1.1,0c0.3-0.2,0.3-0.3,0.6-0.3c0.3,0,0.9,0.1,1.1-0.1c0.1-0.2-0.2-0.4,0.5-0.2
				c0.6,0.2-0.1,0.2,0.9,0.2c1,0,1.2-0.2,1.8-0.1c0.6,0,1.1-0.1,1.3-0.3c0.2-0.2,0.6-0.4,0.6-0.4s0.5,0.1,0.8,0.2
				c0.4,0.1,1.1,0.1,1.1,0.1s0.2-0.5,0.6-0.4c0.4,0.1,1,0.7,1.4,0.7c0.4,0,0.9-0.1,1.1-0.2c0.2-0.1,0.7-0.2,1-0.2c0.3,0,1-0.3,1-0.3
				s0.3-0.6,0.6-0.4c0.3,0.2,0.5,0.3,0.5,0.6c0,0.3,0.1,0.8,0.4,0.9c0.3,0,0.3-0.1,0.6-0.3c0.3-0.2,0.4-0.3,0.8-0.3
				c0.5,0,1.3-0.3,1.3-0.3s0.4-0.4,0.7-0.4c0.3,0,0.9,0,0.9,0s0.1,0.1,0.6,0.3c0.5,0.2,0.5,0.1,0.8-0.1c0.3-0.2,0.5-0.1,1-0.1
				c0.5,0,1.4-0.2,1.4-0.2l0.7,0.1c0,0-0.4,0.7-0.6,1c-0.3,0.3-1.2,0.9-1.5,1.2c-0.3,0.2-0.6,0.3-1,0.7c-0.3,0.3-0.1,0.1-0.8,0.6
				c-0.6,0.4-0.6,0-0.9,0.5c-0.4,0.5-0.5,0.7-0.7,0.8c-0.2,0.1-0.3-0.1-1,0.3c-0.7,0.4-0.9,0.6-1.5,0.9c-0.6,0.3-1,0.6-1.4,0.9
				c-0.4,0.3-0.8,0.5-1.2,0.8c-0.4,0.4-0.6,0.3-1.2,0.7c-0.6,0.5-0.5,0.3-1.3,0.9c-0.8,0.6-1.3,0.7-2,1.3c-0.7,0.5-2.5,1.8-2.8,2
				c-0.3,0.2-0.5,0.2-1.3,0.9c-0.8,0.7-1.1,0.7-1.3,0.8c-0.2,0.2-0.4,0.6-0.8,0.7c-0.5,0.2-0.6-0.2-0.9,0.3
				c-0.3,0.5-0.1,0.6-0.6,0.7c-0.4,0.2-2,1-2.6,1.4c-0.6,0.4-0.7,0-1.2,0.7c-0.5,0.7-0.5,0.9-0.7,1.1c-0.2,0.2-0.2,0.5-0.7,0.5
				c-0.5,0-0.6-0.1-0.8,0.1c-0.2,0.2-0.4,0.9-0.6,1c-0.2,0-0.5-0.2-0.8,0c-0.2,0.3-0.6,0.8-1.1,1.2c-0.6,0.4-0.8,0.3-1.1,0.7
				c-0.4,0.4-1,0.8-1.3,0.9c-0.3,0.2-0.3,0.3-0.7,0.4c-0.4,0.1-0.4-0.1-0.8,0.2c-0.4,0.3-0.5,0.7-0.6,0.9c-0.2,0.2-0.6,0.3-0.8,0.6
				c-0.3,0.2-2.1,1.2-2.3,1.5c-0.2,0.3-0.8,0.8-0.8,0.8s-0.2,0.2-0.7,0.4c-0.6,0.3-0.5,0.1-0.9,0.4c-0.4,0.4-0.7,1.1-1,1.2
				c-0.3,0.2-0.6,0.5-1,0.8c-0.3,0.3-0.9,0.4-0.9,0.4l-0.7,0.8c0,0-0.2,0.3-0.6,0.5c-0.4,0.1-0.8,0.1-0.9,0.4
				c-0.2,0.2-0.3,0.6-0.5,0.6c-0.2,0.1-0.1-0.1-0.4,0.2c-0.3,0.4-0.6,0.6-1,1c-0.3,0.3-0.7,0.5-0.7,0.5l-0.3,0.4
				c0,0-0.2,0.1-0.5,0.2c-0.2,0.1-0.4,0.3-0.7,0.6c-0.3,0.2-0.8,0.7-0.8,0.7s-0.2,0.4-0.1,0.8c0.1,0.4,0.6,0.4,0.6,0.4
				s0.4,0.1,0.6-0.1c0.3-0.3,0.2-0.4,0.5-0.6c0.4-0.2,0.8-0.4,1.1-0.6c0.4-0.1-0.2,0.2,0.7-0.2c0.8-0.5,1.3-1,1.8-1.4
				c0.5-0.4-0.1,0,1-0.6c1.1-0.6,1.1-0.9,1.9-1.3c0.8-0.4,0.4-0.4,1.2-0.8c0.8-0.4,1.8-0.6,2.2-1.2c0.4-0.6,0.5-0.4,1.5-0.9
				c1-0.4,1.7-1.3,1.9-1.3c0.2,0,0.6,0,1.1-0.3c0.5-0.4,0.5-0.4,0.9-0.5c0.4-0.2,0.7-0.4,0.7-0.4s0.5-0.3,0.9-0.3c0.4,0,1,0.4,1,0.4
				s0.2,0.3-0.2,0.7c-0.4,0.4-1.1,0.7-1.1,0.7s-0.6,0.4-0.6,0.6c0,0.3,0,0.4,0.2,0.6c0.1,0.3,0,0.4,0.5,0.3c0.5-0.1,0.5-0.5,0.9-0.6
				c0.4-0.1,0.7,0,1-0.2c0.3-0.1,0.4,0,0.8-0.4c0.4-0.4,0.2-0.4,0.5-0.5c0.3-0.1,0.2-0.2,0.4-0.3c0.2-0.1,1-0.2,1-0.2s0.7-0.3,1-0.6
				c0.3-0.3,0.3-0.4,0.6-0.4c0.3,0,0.5,0.1,0.9-0.1c0.3-0.2,0.1,0.1,0.8-0.4c0.8-0.5,0.5-0.4,1-0.7c0.5-0.2,1.2-0.8,1.4-0.9
				c0.2-0.1,0.6-0.5,0.9-0.6c0.3-0.1-0.4-0.1,0.5-0.3c0.9-0.1,1.2-0.3,1.6-0.7c0.5-0.3,0.3-0.2,1-0.4c0.7-0.2,0.5,0,1.1-0.4
				c0.6-0.4,0.4-0.5,0.9-0.8c0.5-0.2,0.4-0.8,1.1-0.7c0.7,0,0.8,0,1.3-0.2c0.5-0.1,0.8-0.2,1-0.6c0.2-0.4,0.1-0.6,0.5-0.8
				c0.4-0.2,0.3,0,0.9-0.1c0.6-0.1,1-0.2,1.4-0.6c0.4-0.3,0.4-0.3,0.7-0.5c0.3-0.2,0.3-0.5,0.3-0.5s0.9,0,1-0.3
				c0-0.2,0.3-0.7,0.5-0.7c0.2-0.1,0.7,0.1,1.2,0.1c0.5,0.1,0.7-0.2,0.7-0.2s-0.4-0.2,0.3-0.3c0.7-0.2,1.4-0.2,1.4-0.4
				c0.1-0.3,0.3-1,0.6-1c0.3,0,0.6-0.3,1.2-0.3c0.6,0,0.9-0.2,1.1-0.4c0.1-0.2-0.3-0.3,0.5-0.4c0.8-0.1,1.2-0.6,1.5-0.7
				c0.4-0.1,1-0.1,1.1-0.5c0.1-0.3,0.3-0.5,0.3-0.5l1.2-0.3l0.7-0.5c0,0,0.3-0.6,0.5-0.6c0.2-0.1,1.3-0.4,1.3-0.4s0.8-0.2,1,0.2
				c0.2,0.4,0.5,1.4,0.6,2c0,0.5,0.3,1.4,0.4,1.8c0,0.5,0.2,0.8,0.1,1.3c-0.1,0.5-0.2,1.1-0.1,1.7c0.1,0.6,0.3,1.3,0.3,1.8
				c0,0.5-0.2,0.7,0,1.1c0.1,0.4,0.5,1.2,0.6,1.5c0,0.3,0.2,0.8,0.3,1.4c0.1,0.6,0.6,2.3,0.6,2.3s0,0.6-0.1,0.9
				c0,0.3-0.1,0.2-0.1,0.6c0,0.4,0.1,1.2,0.1,1.5c-0.1,0.7,0.3,0.6,0.4,0.9c0.1,0.4-0.1,0.9-0.1,1.2c0.1,0.4,0.6,0.7,0.6,1
				c0.1,0.3,0.1,1,0.2,1.5c0.2,0.5,0.3,0.6,0.4,0.9c0.1,0.4-0.1,1.7-0.1,2c0,0.3-0.1,0.6-0.1,1c0.1,0.4,0.1,0.6,0.2,1
				c0.1,0.4,0.2,0.9,0.2,1.1c0.1,0.3-0.1,0.7-0.3,1c-0.3,0.2-0.9,0.4-0.9,0.4s-0.1-0.1-0.5,0.1c-0.5,0.2-0.6,0.2-0.8,0.1
				c-0.2-0.1-0.1-0.3-0.7-0.2c-0.5,0-0.6,0.1-1,0.3c-0.4,0.1-0.6,0-0.8,0.3c-0.2,0.3-0.7,0.3-0.7,0.3s-0.4-0.1-0.6-0.1
				c-0.2,0-0.4-0.1-0.9,0c-0.5,0.1-0.1,0.1-0.9-0.1c-0.8-0.2-1-0.4-1.6-0.3c-0.6,0.2-0.5,0.1-1.2,0.3c-0.6,0.2-2.1,0.2-2.4,0.2
				c-0.4,0.1-1.2-0.1-1.4-0.1c-0.2,0-0.7-0.1-1.3,0c-0.7,0.1-1.5,0.1-1.5,0.1l-0.9-0.3c0,0-0.1,0.4-0.5,0.4c-0.4,0-0.6-0.3-0.9-0.3
				c-0.3,0-1.3,0.1-1.3,0.1s-0.1,0.2-0.7,0c-0.6-0.2-0.8-0.4-0.9-0.4c-0.2,0-0.3-0.2-0.6,0c-0.3,0.2-0.2,0.5-0.5,0.5
				c-0.3,0-0.8,0.1-1.4,0.1c-0.6,0-0.6-0.2-0.9-0.1c-0.3,0.1-0.7,0.1-0.9,0.2c-0.3,0.1-0.6,0-1,0c-0.3,0-0.8-0.3-1-0.1
				c-0.2,0.2-0.6,0.5-0.8,0.5c-0.2,0-1,0-1,0s-0.3-0.4-0.7-0.4c-0.5,0-1.7,0.5-1.7,0.5l-0.6,0.2c0,0-0.5-0.1-0.8,0.2
				c-0.3,0.2-0.5,0.5-0.6,0.8c-0.1,0.3-0.3,0.3-0.4,0.8c0,0.6-0.2,0.9,0.1,1.3c0.4,0.4,0.4,0.4,0.7,0.4c0.3,0,0.6-0.1,0.8,0.1
				c0.2,0.2,0.3,0.6,0.8,0.9c0.5,0.3,0.7,0.2,0.8,0.6c0.1,0.5,0.6,0.8,0.6,0.8s0,0.2,0.6,0.2c0.5,0.1,0.7,0.1,0.7,0.1l0.7-0.1
				c0,0,0,0.3,0.3,0.6c0.4,0.3,0.5,0.3,0.9,0.4c0.4,0.1,0.8,0.2,1,0.2c0.3,0.1,0.7,0.2,0.7,0.2s0.1-0.3,0.5,0
				c0.4,0.3,1.2,0.6,1.2,0.6s0.3,0.3,0.6,0.1c0.3-0.1,0.6-0.2,0.6-0.2s0.3,0.1,0.9,0.3c0.6,0.2,0.4,0.2,0.9,0.2
				c0.4-0.1,0-0.4,0.6-0.2c0.6,0.2,0.9,0.3,1.2,0.3c0.2,0,0.1-0.2,0.6,0.1c0.5,0.3,0.2,0.4,0.8,0.5c0.6,0.2,0.6,0,1-0.1
				c0.4-0.2,1-0.8,1.4-0.8c0.4,0,0.6,0.3,0.9,0.2c0.3-0.1-0.1-0.2,0.7-0.3c0.8,0,1.2-0.1,1.5,0.1c0.3,0.2,0.8,0.7,1,0.6
				c0.3-0.2,0.2-0.4,0.6-0.5c0.5-0.1,1.1-0.2,1.7-0.1c0.6,0,1.2,0.1,1.2,0.1s0.7,0,1,0c0.3,0,0.3-0.1,0.8,0.1
				c0.5,0.2,0.5,0.2,0.7,0.1c0.2-0.1,0.8,0.1,0.8,0.1l0.8-0.5l0.8-0.1c0,0,0.3-0.3,0.5,0c0.2,0.2,0.9,0.2,1,0.6
				c0.2,0.3,0.6,1,0.6,1.3c0.1,0.3,0.1,0.2,0.2,0.6c0,0.4-0.1,0.4,0.2,0.8c0.3,0.5,0.2,1.5,0.2,1.7c0,0.3-0.2,0.6-0.1,0.8
				c0,0.3,0,0.6,0.1,0.8c0.1,0.2,0.1,0.3,0.6,0.7c0.5,0.5,0.6,0.5,0.6,0.8c-0.1,0.3-0.1,0.8-0.1,1.2c0,0.4,0.3,1.7,0.4,2.2
				c0,0.6,0,1.3,0.1,1.6c0.1,0.3,0,0,0.3,0.6c0.3,0.6,0.6,1.6,0.6,1.6l0.1,0.8l-0.2,0.8c0,0-0.8,0.2-1,0.2c-0.2,0-1.5,0-1.7,0
				c-0.3,0.1-1.4-0.2-2.3,0c-0.8,0.2-2,0-2.3,0.1c-0.3,0-0.4,0-1.3-0.1c-0.8,0-2.7,0.3-3.3,0.1c-0.6-0.1-1.8,0.1-2.1,0.1
				c-0.2,0-0.5-0.1-1.3-0.1c-0.8,0-1.6-0.1-2-0.1c-0.4,0-1,0-1.4,0c-0.4,0-1-0.2-1.4-0.2c-0.4,0-0.9,0.1-1.5,0.1
				c-0.5,0-1-0.1-1.7-0.2c-0.7,0-1.1-0.1-1.4-0.1c-0.3,0-0.3,0.2-0.8,0.1c-0.4-0.1-0.3-0.2-1-0.2c-0.6-0.1-1.4-0.2-1.9-0.1
				c-0.6,0.1-1.2-0.1-1.6,0c-0.3,0-1.7,0.1-1.7,0.1s-0.2-0.1-1-0.1c-0.7,0-0.9,0-1.3,0.1c-0.4,0-0.9,0.2-1.1,0.1
				c-0.2-0.1,0-0.1-0.7-0.1c-0.7-0.1-2.1-0.2-2.4-0.1c-0.2,0.1-0.9,0.1-1.1,0.1c-0.2,0-1.1-0.3-1.1-0.3s-0.3-0.1-0.5-0.1
				c-0.2,0,0.5,0.1-0.5,0.1c-1,0.1-0.7,0-1,0.2c-0.3,0.2-0.4,0.3-0.7,0.2c-0.3-0.1-0.4-0.2-0.8-0.2c-0.5,0-0.9,0.1-1.2,0
				c-0.4-0.1,0.3-0.5-0.9-0.2c-1,0.3-0.9,0.3-1.2,0.5c-0.3,0.2-0.6,0.4-1.1,0.5c-0.4,0.2-0.8,0.2-0.8,0.2l-0.2-0.3
				c0,0-0.4-0.2-0.7-0.2c-0.2,0-0.1-0.1-0.4,0.2c-0.3,0.3-0.4,0.4-0.6,0.4c-0.2,0-0.7-0.2-1.2,0c-0.5,0.2-0.9,0.4-1.1,0.6
				c-0.3,0.2-0.8,0.5-1,0.6c-0.3,0.2-0.7,0.7-0.8,0.9c-0.1,0.3,0,0.9,0.6,1.5c0.6,0.6,1,0.8,1.4,1c0.4,0.2,0.6,0.5,1.3,0.7
				c0.6,0.2,0.7,0.1,0.9,0.3c0.3,0.2,0.5,0.4,1,0.5c0.5,0.1,1.4,0.2,1.4,0.2l0.8,0.1c0,0,0.4-0.1,0.7-0.1c0.3,0.2,0.7,0.6,0.8,0.8
				c0.1,0.2,0.6,0.3,0.6,0.3h0.7c0,0,0.6,0.6,0.9,0.5c0.3-0.1,0.2-0.3,0.8-0.3c0.6,0,1.2,0,1.2,0s0.4,0.1,0.6,0.4
				c0.2,0.3,0.7,0.4,0.9,0.3c0.2,0,0.2-0.1,0.7-0.1c0.4,0.1,0.8,0.4,1.2,0.4c0.4,0,1,0,1.9,0.1c0.9,0.1,0.6,0.1,1.6,0.1
				c1,0,1,0,1.3,0c0.4,0,0.6-0.1,0.8-0.2c0.2,0,0.2-0.4,0.7-0.2c0.5,0.2,1.2,0.5,1.6,0.5c0.4,0,0.6,0,1,0.1c0.4,0.1,0.4,0.1,1,0.1
				c0.6,0,0.6-0.4,1.2-0.3c0.6,0.1,0.9,0.2,1.3,0.3c0.4,0.1,0.4,0.2,0.7,0c0.3-0.1,0.7-0.1,1-0.1c0.3,0,0.6,0.1,1.1,0.1
				c0.6,0.1,0.7,0,1.1-0.1c0.4-0.1,1.2-0.5,1.4-0.5c0.2,0,0.6,0,0.9,0.2c0.3,0.2,0.2,0.6,0.8,0.4c0.6-0.2,0.6-0.5,0.9-0.5
				c0.3,0,0.8,0.1,1,0.2c0.2,0.1,1.1,0.1,1.4,0c0.3-0.1,0.4-0.1,1,0.2c0.7,0.3,1.3,0,1.6-0.1c0.4-0.1,0.6-0.4,0.8-0.4
				c0.2,0.1,0.7,0.1,1,0.1c0.3,0,0.1,0.2,0.6,0.5c0.5,0.3,1.6,0,1.6,0l1.1-0.5c0,0,0.5-0.1,0.8-0.1c0.3,0,1.7,0.1,1.7,0.1
				s0.8,0.1,1.2,0c0.4-0.1,0.4-0.1,0.8-0.2c0.4,0,0-0.2,0.6,0c0.6,0.1,0.9,0.3,1.3,0.3c0.4,0,1.9-0.3,1.9-0.3s0.9,0.2,1.4,0.1
				c0.5-0.1,1,0,1.3-0.1c0.3,0,0.9,0,1.1,0c0.2,0,1.5,0,1.8,0c0.2-0.1,0.9-0.1,0.9-0.1s0.5,0,0.8,0.1c0.2,0.1,1,0.1,1,0.1
				s0.5-0.1,0.8-0.2c0.2-0.1,0.4-0.5,0.9-0.4c0.4,0.1,0.7-0.2,1.2-0.1c0.5,0.2,1,0.2,1.5,0.2c0.5,0.1,0.6,0.1,1.3,0.1
				c0.7,0,0.7,0.1,1.2,0c0.5-0.1,1.3-0.2,1.3-0.2s0.3,0,0.7,0c0.4,0,0.5,0.2,1,0.2c0.5-0.1,1-0.1,1-0.1s1.1-0.2,1.4-0.2
				c0.3,0,1,0.1,1.3,0.1c0.2-0.1,1,0,1.3,0c0.2-0.1,1.3,0.1,1.3,0.1s1.3-0.2,1.7-0.1c0.4,0,0.6,0.1,0.9,0c0.3,0,0.3-0.1,0.7,0
				c0.3,0,0.9,0.2,1.3,0.2c0.4,0,1.9-0.1,2.1-0.1c0.3-0.1,0.5-0.1,0.8-0.1c0.4,0.1,0.7,0.2,1.2,0.2c0.4-0.1,0.4-0.1,1.2,0
				c0.8,0,1.4,0.1,1.8,0.1c0.5,0,1.1,0,1.1,0s0.6-0.2,0.9-0.2c0.3,0-0.3-0.1,0.5-0.1c0.8,0,1.2-0.2,1.5,0c0.3,0.2,1.2,0,1.2,0
				s0.7,0.4,1.4,0.1c0.8-0.3,1.5-0.4,1.7-0.4c0.2-0.1,0.7-0.2,0.7-0.2l0.7,0.1c0,0,0.2-0.3,0.4-0.2c0.2,0,0.6,0.5,0.6,0.5
				s0.7,0.4,1,0.2c0.3-0.2,0.8-0.4,0.8-0.4l0.6-0.2c0,0-0.1,0.4,0.6,0.4c0.7,0,0.5-0.4,0.7-0.4c0.2,0,0.9-0.3,0.9-0.3l0.5-0.2
				c0,0,0.7,0,0.9,0c0.2,0,0.6,0.2,0.9,0.2c0.4-0.1,0.4-0.1,0.9-0.1c0.5,0,0.9,0,1.2,0c0.3,0,1.1,0,1.1,0s0.4-0.2,0.8-0.3
				c0.3-0.1,0.5-0.2,0.5-0.2s0.4,0.2,0.7,0.4c0.3,0.1,1,0.1,1.2,0c0.2-0.1,0.8-0.4,0.8-0.4s0.2-0.1,0.5,0.1c0.4,0.1,0.9,0.4,1.2,0.3
				c0.3-0.1,0.5-0.3,0.7-0.4c0.2,0,0.1-0.1,0.5,0c0.4,0-0.2,0.1,0.9,0.1c1,0,2.4,0,2.4,0s1.3,0.1,1.9,0c0.6-0.1,1.3,0,1.6,0
				c0.4,0,1.3,0.1,1.7,0c0.3,0,1.2-0.1,1.2-0.1s0.5-0.4,1-0.4c0.5,0,1,0.1,1.2-0.1c0.2-0.1,0.5-0.4,0.5-0.4l0.6,0.3
				c0,0,0.9,0.3,1.1,0.2c0.3,0,1.3,0,1.3,0s1,0,1.2-0.1c0.2,0,0.7-0.2,1-0.5c0.3-0.3,0.1-0.8,0.1-0.8s-0.2-0.4-0.6-0.6
				c-0.4-0.2-0.2-0.2-0.9-0.2c-0.7-0.1-0.5-0.1-0.9,0c-0.4,0.1-1.4,0.3-1.4,0.3l-1,0c0,0-0.2,0.1-0.7-0.1c-0.4-0.2-0.8-0.3-0.8-0.3
				s-0.2-0.3-0.4-0.3c-0.2,0-0.4-0.1-0.4-0.1l-0.4,0.3l-0.3-0.2c0,0,0-0.2-0.4-0.2c-0.4,0-0.8-0.1-1,0.1c-0.1,0.2-0.6,0.5-0.6,0.5
				s-0.3,0.3-0.6,0.1c-0.3-0.3-0.7-0.5-0.7-0.5s-0.3-0.1-0.6-0.1c-0.3,0-0.7,0-1,0c-0.3,0.1-0.4,0.2-0.6,0.1
				c-0.3-0.1-0.2-0.3-0.7-0.3c-0.5,0-0.6,0-0.9,0c-0.3,0-0.8,0.2-0.8,0.2l-1.1-0.2c0,0,0,0-0.7-0.2c-0.7-0.2-1.2-0.4-1.5-0.4
				c-0.3,0.1-1,0.1-1,0.1s-0.8-0.3-1-0.3c-0.3,0-0.4-0.3-0.7-0.1c-0.3,0.1-0.6,0.2-0.7,0.2c-0.2,0.1-1.2,0.1-1.2,0.1l-0.6-0.2
				c0,0-0.4-0.4-0.7-0.3c-0.3,0.1-0.4,0.3-0.6,0.4c-0.3,0-1.2-0.1-1.2-0.1s-1.3-0.3-1.6-0.5c-0.3-0.1-1.4-0.4-2-0.5
				c-0.6-0.1-1.1-0.1-1.5-0.1c-0.4,0-0.4,0.1-0.9,0.1c-0.5,0-1.1-0.1-1.5,0c-0.4,0.1-1.3,0-1.3,0s-0.2-0.2-0.7-0.3
				c-0.4-0.1-1.2-0.2-1.5-0.2c-0.3,0-0.8-0.2-1.2,0c-0.4,0.2-0.2,0.2-0.8,0.2c-0.6,0-1.2-0.1-1.4-0.1c-0.2,0-0.6-0.1-1.1-0.2
				c-0.6,0-0.6-0.2-1.1-0.2c-0.6,0.1-1.9,0-1.9,0s-0.1,0-0.8,0c-0.7,0.1-1.4,0.1-1.7,0.2c-0.3,0.1-1.1,0-1.3,0c-0.3,0-1-0.1-1-0.1
				l-0.7-0.2h-1c0,0-0.7-0.5-0.9-0.5c-0.2,0-0.6,0.1-0.6,0.1s-0.3,0.2-0.5,0.1c-0.2,0-0.3-0.2-0.6-0.2c-0.2,0-0.2,0-0.5,0.1
				c-0.3,0.2-0.8,0.1-0.8,0.1s-0.3-0.4-0.7-0.4c-0.3,0-0.8,0-1,0c-0.2,0-0.1-0.2-0.6-0.2c-0.5,0-0.5,0-0.8-0.1c-0.3-0.1-1.2,0-1.2,0
				s-0.2,0.3-0.5,0.2c-0.3-0.1-0.4-0.1-0.9-0.2c-0.5-0.1-0.1-0.3-0.8-0.1c-0.7,0.3-0.7,0.2-1.2,0.2c-0.4-0.1-0.7-0.2-0.9-0.2
				c-0.3,0-0.6-0.1-0.9,0c-0.3,0.1-0.8,0-1.2-0.1c-0.4-0.1-0.6-0.1-1-0.1c-0.4,0.1-1.1,0.1-1.1,0.1l-0.4-0.2l-0.2-0.8
				c0,0,0-0.2,0-0.7c0-0.6-0.1-0.8,0.2-1.4c0.2-0.5,0.2-0.7,0.3-1.2c0.1-0.5,0.2-0.4,0.1-0.9c-0.1-0.5-0.2-0.9-0.2-0.9s0-0.1,0-0.5
				c0.1-0.4,0.4-1.3,0.4-1.7c0-0.4,0.2-0.4,0-0.8c-0.2-0.5-0.4-0.7-0.3-0.9c0-0.3,0.2-0.1,0.3-0.6c0.1-0.5,0.1-0.4,0.1-0.8
				c0-0.4-0.3-1.1-0.3-1.1s0,0.1,0.3-0.4c0.4-0.5,0.6-0.6,0.5-1.1c-0.1-0.5-0.2-0.6-0.1-0.7c0.1-0.2,0-0.4,0.3-0.5
				c0.3-0.1,0.7-0.3,0.5-0.8c-0.2-0.6-0.3-1-0.3-1s0.1-0.6,0.6-0.7c0.4,0,1.2-0.5,1.4-0.7c0.1-0.3,0.1-0.6,0.4-0.6
				c0.4-0.1,0.6,0.3,1.2,0c0.6-0.3,1.3-0.2,1.8-0.3c0.5-0.1,1.2,0.1,1.6-0.1c0.4-0.2,1.4,0,1.7-0.1c0.3-0.1,0.6-0.1,1-0.1
				c0.4-0.1,0.2,0,1-0.2c0.8-0.1,0.3-0.2,0.9-0.3c0.6-0.1,0.8-0.1,1.4-0.2c0.5-0.2,0.3,0,0.7,0c0.4,0,1.1-0.3,1.1-0.3s0.4-0.1,0.8,0
				c0.4,0.1,0.6,0.2,0.9,0c0.4-0.1,0.9-0.5,0.9-0.5s0.9,0,1.3-0.1c0.3,0,1.1,0.3,1.3,0.1c0.2-0.2,0.2-0.3,0.5-0.3
				c0.3-0.1,0.3-0.3,0.8-0.3c0.4,0.1,0.2,0.3,1,0.3c0.8,0,1.4-0.3,1.4-0.3l1.4-0.1c0,0,0.6-0.1,1.1,0c0.5,0.1,1,0.1,1.3-0.1
				c0.3-0.2,0.6-0.2,0.6-0.4c0-0.3-0.4-0.7-0.4-0.7l-0.7-0.6l-0.1-0.9c0,0,0,0-0.2-0.3c-0.3-0.2-0.2-0.2-0.5-0.4
				c-0.3-0.1-0.3-0.2-0.5-0.1c-0.2,0-0.8,0.1-0.8,0.1l-0.7,0.1c0,0-0.3-0.1-0.6-0.1c-0.2,0-1.1-0.1-1.1-0.1l-0.3,0.2l-0.6,0.1
				c0,0-0.1-0.3-0.6-0.4c-0.5-0.1-0.8-0.1-1-0.1c-0.3,0-0.9,0-0.9,0l-0.5,0.3c0,0-0.4,0-0.6-0.2c-0.2-0.1-0.3-0.4-0.5-0.3
				c-0.2,0.1-0.5-0.1-0.8,0c-0.4,0.1-0.9,0.1-0.9,0.1s0.2,0.4-0.2,0.4c-0.4,0-0.2-0.3-0.8-0.3c-0.5,0-0.9,0.1-0.9,0.1h-0.9
				c0,0-0.5,0.2-0.7,0c-0.2-0.2-0.2-0.3-0.6-0.4c-0.4,0-0.9,0-1.1,0c-0.2,0.1-0.4-0.1-0.9-0.1c-0.5,0-1.2-0.1-1.2-0.1l-0.7,0.2
				l-0.6,0.2c0,0-0.3-0.3-0.6-0.5c-0.4-0.1-1.6-0.2-1.8-0.2c-0.2,0-0.7,0.1-0.7,0.1l-0.4,0.1c0,0-0.4-0.4-0.7-0.2
				c-0.3,0.3-0.6,0.3-0.6,0.3s-0.1-0.2-0.6-0.5c-0.5-0.2-0.8-0.2-1.1-0.3c-0.3,0-0.7-0.1-0.9,0c-0.2,0-0.6,0.2-0.6,0.2
				s-0.8,0.1-1,0.1c-0.3,0-0.8,0-1-0.1c-0.2,0-0.6-0.1-0.9-0.2c-0.3-0.1-0.6-0.1-1.1-0.4c-0.5-0.2-0.8-0.3-1-0.6
				c-0.1-0.3-0.5-0.4-0.4-1.2c0.1-0.8-0.2-1-0.1-1.5c0.1-0.6,0.1-0.5,0.2-0.9c0.1-0.4,0-0.4,0.3-0.6c0.3-0.3,0.6-0.4,0.8-0.6
				c0.2-0.2,0.2-0.1,0.4-0.6c0.1-0.5,0.3-0.6,0.3-0.8c0.1-0.2-0.1-0.2,0-0.5c0.1-0.4,0.2-0.5,0.1-0.8c-0.1-0.3-0.5-0.2-0.1-0.6
				c0.5-0.5,0.5-0.9,0.5-0.9s-0.4-0.2-0.1-0.5c0.2-0.3,0.4-0.4,0.5-0.7c0-0.3,0.1-0.6,0.1-1.1c0.1-0.4,0-0.5,0-0.7
				c0-0.3-0.3,0.2-0.1-0.5c0.3-0.7,0.3-1,0.4-1.3c0-0.3,0.1-0.3,0.2-0.6c0.1-0.3,0.1-0.4,0.1-0.4s-0.4-0.2-0.3-0.6
				c0.1-0.4,0-0.3,0.1-0.7c0.1-0.4,0.1-0.4,0.2-0.6c0.1-0.2-0.1-0.5-0.1-0.9c0-0.4-0.2-0.4,0-0.7c0.2-0.4-0.2-0.2,0.2-0.5
				c0.3-0.2,0.6-0.7,0.5-1c0-0.3,0-0.8,0-0.8s0.3-0.6,0.5-0.9c0.2-0.2,0.3-0.5,0.4-0.8c0.1-0.3,0-0.2,0.2-0.6
				c0.2-0.4,0.3-0.9,0.3-0.9l0.5-1.1c0,0,0.2-0.4,0.4-0.8c0.2-0.3,0.1-0.5,0.3-0.8c0.1-0.3-0.1-0.3,0-0.8c0.1-0.5,0.2-0.7,0.2-0.7
				s0.1-0.2,0.2-0.4c0.1-0.3,0-0.4,0.1-0.7c0.1-0.3,0.5-0.6,0.5-0.6s0.5-0.4,0.8-0.1c0.4,0.3,0.4,0.4,0.9,0.6
				c0.5,0.1,0.3,0.2,0.8,0.2c0.5-0.1,1-0.1,1.1,0.1c0,0.3,0.5,0.2,1.2,0.4c0.7,0.2,0.7,0.1,1,0.5c0.2,0.4,0.3,0.5,0.7,0.6
				c0.3,0,0.7,0,1.2,0.2c0.5,0.1,0.1-0.2,0.9,0.3c0.8,0.5,0.5,0.1,0.9,0.4c0.5,0.3,0.3,0.3,0.9,0.5c0.5,0.1,0.7,0.1,1.3,0.3
				c0.5,0.2,0.7,0.5,1,0.6c0.2,0.1,0.4,0.1,1,0.3c0.6,0.2,0.4,0.2,0.8,0.3c0.4,0.1,0.3-0.1,0.9,0.3c0.6,0.4,1.6,0.4,1.6,0.4l1.1,0.6
				c0,0,0.5,0.2,1,0.2c0.5,0,0.9,0.3,1.3,0.6c0.4,0.3,1.2,0.6,1.2,0.6s0.9,0.4,1.3,0.4c0.4,0,0.9,0.1,1.2,0.4
				c0.3,0.2,0.4,0.2,0.8,0.4c0.4,0.2,0.3,0.3,0.8,0.4c0.5,0.1,0.1-0.3,0.9,0.1c0.8,0.4,1.5,0.7,1.7,0.8c0.2,0.1,0.7,0.4,0.7,0.4
				s0.5,0.5,0.9,0.5c0.3,0,0.3-0.1,0.8,0.1c0.5,0.2,0.8,0.3,1,0.5c0.1,0.2,0.8,0.5,0.8,0.5l0.8,0.2c0,0,0.4,0,1,0.3
				c0.6,0.3,0.3,0.2,0.8,0.4c0.5,0.3,0.7,0.1,1.1,0.3c0.4,0.1,1,0.5,1,0.5s0.1,0.5,0.7,0.5c0.6,0,0.5-0.2,0.9,0.1
				c0.4,0.3,0.1,0.3,0.7,0.4c0.6,0,0.3,0,0.8,0.1c0.5,0.1,1.5,0.3,1.5,0.3s0.9,0.5,1.1,0.6c0.2,0,0.5,0.1,1,0.2c0.5,0,0.2-0.4,0.7,0
				c0.5,0.4,0.6,0.4,1,0.4c0.3,0.1,0.8,0.3,0.8,0.3s0.3,0.5,0.8,0.4c0.5-0.1,0.7-0.1,1,0.1c0.2,0.1,0.8,0.2,1,0
				c0.2-0.2,0.5-0.3,0.7-0.4c0.2-0.1,0.4,0.1,0.7-0.3c0.3-0.3,0.3-0.9,0.3-0.9l-0.4-0.4c0,0,0-0.2-0.4-0.5c-0.4-0.3-0.7-0.5-1-0.6
				c-0.3-0.1-0.6-0.3-0.6-0.3l-0.7-0.2c0,0,0.1,0.4-0.7-0.3c-0.8-0.7-0.3-0.5-1-0.7c-0.7-0.4-0.9-0.3-1.1-0.6
				c-0.2-0.2-0.3-0.4-0.5-0.5c-0.2-0.1-0.3-0.1-0.7-0.3c-0.5-0.2-0.5-0.4-0.8-0.5c-0.3-0.2-0.9-0.4-0.9-0.4s-0.4-0.5-0.8-0.7
				c-0.5-0.2-1-0.5-1.3-0.7c-0.3-0.2-0.4-0.5-0.8-0.6c-0.5-0.1-0.5-0.1-0.9-0.2c-0.3-0.1-0.6-0.1-0.8-0.4c-0.2-0.2-0.4-0.5-0.8-0.7
				c-0.4-0.2-0.3-0.3-0.7-0.4c-0.4-0.1-1.1-0.9-1.1-0.9s-0.2-0.3-0.5-0.3c-0.3-0.1-0.7-0.3-0.7-0.3l-0.6-0.6l-0.9-0.5l-0.7-0.4
				c0,0-0.3-0.4-0.8-0.5c-0.4-0.1-0.8-0.1-1-0.3c-0.2-0.2-0.8-0.6-0.8-0.6s0-0.3-0.5-0.4c-0.5-0.1-0.9-0.4-1.2-0.5
				c-0.3-0.1-0.8-0.4-0.8-0.4s-0.3-0.3-0.5-0.6c-0.3-0.3-0.4-0.4-0.7-0.6c-0.3-0.2-1-0.6-1.3-0.7c-0.3-0.1-0.8-0.5-1.2-0.7
				c-0.4-0.1-0.2,0-0.7-0.2c-0.5-0.2-0.5-0.4-0.7-0.6c-0.2-0.2-0.6-0.4-0.6-0.4s-0.1-0.4-0.4-0.4c-0.3,0-0.6-0.1-0.9-0.1
				c-0.3,0-0.7,0.2-0.8-0.2c-0.1-0.4-0.7-0.7-0.7-0.7s-0.2-0.5-0.4-0.6c-0.2,0-1.1,0-1.1,0l-0.7-0.4c0,0-0.2-0.3-0.5-0.5
				c-0.4-0.1-1.1-0.4-1.1-0.4s-0.4-0.2-0.3-0.4c0-0.2-0.2-0.6-0.5-0.6c-0.2,0-0.8,0-0.8,0s-0.2-0.3-0.5-0.4
				c-0.2-0.1-0.7-0.4-0.7-0.4s-0.4,0-0.6-0.2c-0.1-0.3-0.2-0.4-0.4-0.5c-0.2-0.1-0.5-0.5-0.7-0.5c-0.2,0-0.5,0-0.7,0
				c-0.3-0.1-0.2-0.4-0.2-0.4s-0.1-0.3-0.5-0.4c-0.3-0.1-0.4-0.3-0.6-0.4c-0.2,0,0.1,0.1-0.4,0c-0.5-0.1-0.5,0-0.8-0.2
				c-0.3-0.2-0.4-0.4-0.4-0.4l-0.2-0.6c0,0,0.3-0.3,0.5-0.4c0.2,0,0.6,0,0.8,0c0.3,0,0.4-0.1,0.9,0c0.5,0.1-0.3,0.3,0.9,0.2
				c1.3-0.2,1.6-0.2,1.8-0.2c0.3,0,0.4-0.2,0.6-0.2c0.2,0,0.1-0.3,0.8,0.2c0.6,0.4,0.6,0.1,1.5,0.3c0.9,0.1,1.9,0,1.9,0l0.8-0.2
				l0.5-0.4h0.7l0.7,0.6h0.6l0.3-0.4c0,0,0.1-0.3,0.3-0.4c0.2-0.1,0.7,0,1,0.1c0.3,0.2,0.5,0.3,0.8,0.3c0.2,0,0.7,0.2,0.7,0.2
				s0.3,0.2,0.6,0.2c0.3,0,0.3-0.1,0.6-0.1c0.2,0,0.2,0,0.6,0.1c0.3,0.1,0.7,0.1,1,0.1c0.2-0.1,0.2,0,0.4-0.2
				c0.2-0.2,0.5-0.7,0.5-0.7h0.6c0,0,0.2,0.1,0.6,0.1c0.4,0,1.2,0,1.4,0c0.2,0,0.2-0.3,0.5,0c0.3,0.3,0.9,0.4,0.9,0.4l0.3-0.5
				c0,0,0.2-0.3,0.7-0.2c0.5,0.1,0.7,0.2,0.7,0.2s0.1,0.1,0.4,0.4c0.3,0.3,0.4,0.4,0.5,0.5c0.2,0.1,0.3,0.1,0.5-0.1
				c0.2-0.2,0.7-0.4,0.7-0.4s0.2,0,0.4-0.2c0.3-0.2,0.3-0.2,0.8-0.2c0.5,0.1,1.3,0,1.3,0s0.6-0.2,0.9,0c0.3,0.1,0.5,0,0.5,0.3
				c0.1,0.4,0.1,0.8,0.4,0.8c0.2,0,0.3-0.2,0.5-0.3c0.2-0.2-0.1-0.3,0.4-0.4c0.6-0.1,0.8,0,1.1-0.1c0.2-0.1,1.5-0.2,1.5-0.2
				s0.7,0,1,0c0.3,0,0.5,0,0.9,0c0.4,0,0.7-0.2,0.9-0.1c0.2,0.1,0.2,0.1,0.6,0.3c0.4,0.2,1,0.3,1.3,0.2c0.3-0.1,0.4-0.1,0.9-0.2
				c0.6-0.1,1.2-0.2,1.2-0.2l0.7-0.1l0.9,0.1c0,0,0.5,0.1,0.7,0.1c0.2-0.1,0.1-0.2,0.4-0.2c0.3,0,0.8,0.2,1,0.2
				c0.2,0.1,0.4,0.1,1,0.3c0.6,0.2,0.7,0.3,1,0.2c0.4,0,1,0,1,0s0.5-0.3,0.8-0.3c0.3,0,0.5,0,0.9,0c0.4,0,1.1,0.1,1.1,0.1l0.9,0
				c0,0,0.3-0.5,0.5-0.5c0.2,0,0.8,0,0.8,0s0-0.2,0.4-0.1c0.4,0.1,0.8,0.3,0.8,0.3h0.7l0.5,0.4l0.7-0.2c0,0-0.3-0.4,0.5-0.2
				c0.9,0.2,1.4,0.4,1.6,0.4c0.2,0.1,0.2,0.3,0.7,0.3c0.5,0,1.1-0.2,1.1-0.2s0.2-0.4,0.6-0.4c0.3,0,0.6,0,0.6,0s0.5,0.4,0.6,0.4
				c0.2,0,1.5,0.2,1.5,0.2s0.8-0.1,1-0.2c0.2-0.1,0.6-0.3,0.6-0.3s0.4,0.1,0.6,0.2c0.3,0.1,0.7-0.2,0.7-0.2s0.5-0.1,0.8,0
				c0.2,0,0.7,0.2,1,0.1c0.3-0.1,1-0.1,1.3-0.2c0.3,0,0.6-0.1,0.8-0.1c0.2,0,0.6,0.2,0.8,0.1c0.3,0,0.3,0.1,0.7,0.1
				c0.4,0,1.1-0.1,1.1-0.1s0.4-0.5,0.8-0.3c0.4,0.2,1.3,0.4,1.5,0.5c0.2,0.1,1.5,0.2,1.5,0.2s0.5-0.1,0.9-0.1c0.4,0,1.4,0,1.4,0
				l1.2-0.1c0,0,0.8,0.1,1.1,0c0.4,0,0.4,0,1,0.1c0.6,0.1,2.5,0.1,2.8,0.1c0.3,0,0.4,0.1,0.9,0c0.5,0,0.1-0.3,1.4,0.1
				c1.2,0.3,2.1,0,2.1,0l1.6,0c0,0,1.1-0.1,1.3-0.1c0.2,0,1.8,0.1,2,0.1c0.3-0.1,0.7-0.1,1.2,0.1c0.5,0.1,1.2,0.2,1.4,0.1
				c0.4,0,1.5-0.1,1.5-0.1s1,0.1,1.3,0c0.3,0,1.9,0,2.5,0c0.5-0.1,1,0.1,1.5,0c0.4,0,1.1,0.1,1.6,0.1c0.6,0,1.4,0.3,1.7,0.1
				c0.4-0.2,1-0.2,1-0.2s1.4,0.1,1.9,0.1c0.5,0,1.7,0.1,2.1,0.1c0.3-0.1,1.1-0.2,1.1-0.2s0.9,0.2,1.1,0.1c0.3-0.1,0.7-0.2,0.7-0.2
				s0.3,0.3,0.5,0.5c0.2,0.2,0.6,0.3,0.9,0.3c0.3,0,0.9-0.2,0.9-0.2s0.4-0.3,0.5-0.2c0.2,0,0.4,0.7,0.8,0.6c0.4-0.1,0.4-0.2,0.6-0.4
				c0.2-0.2,0.8-0.6,0.8-0.6h0.5l0.4,0.6c0,0,0.5,0.2,0.8,0.1c0.3-0.1,0.4-0.5,0.7-0.5c0.4,0,0.5,0.6,0.7,0.6c0.2,0,0.5-0.1,0.9-0.2
				c0.3-0.2,0.8-0.4,1-0.4c0.2-0.1,0.3,0,0.9,0.1c0.6,0,0.8,0.1,0.8,0.1s1.2,0.1,1.8,0c0.5-0.1,1.3,0.1,1.5,0
				c0.3-0.1,1.9-0.1,1.9-0.1s1.4,0.2,1.6,0.1c0.2-0.1,1-0.1,1.3-0.2c0.3-0.1,1.9,0.2,2.6,0.2c0.7,0,1.2,0.3,2,0.2
				c0.9-0.1,2.1-0.1,2.4-0.1c0.3-0.1,1.2,0.1,1.6,0.1c0.4,0,1.9,0.1,1.9,0.1s0.5,0,1.5,0c1,0.1,2,0.1,2.3,0.1c0.3,0,1.2,0.2,1.2,0.2
				s0.3,0,0.5-0.2c0.2-0.2,0.2-0.3,0.2-0.3l0.4,0.1c0,0,0.3,0.3,0.7,0.2c0.4-0.1,0.8-0.2,0.9-0.5C559.3,95.2,559.3,94.9,558.9,94.7z
				"/>
		</g>
	</g>
</g>
</svg>
